<?xml version="1.0" encoding="utf-8"?>
<!-- Generator: Adobe Illustrator 27.5.0, SVG Export Plug-In . SVG Version: 6.00 Build 0)  -->
<svg version="1.1" id="_x2DC_àð_x5F_3" xmlns="http://www.w3.org/2000/svg" xmlns:xlink="http://www.w3.org/1999/xlink" x="0px"
	 y="0px" viewBox="0 0 2400 2000" style="enable-background:new 0 0 2400 2000;" xml:space="preserve">
<g>
	<rect style="fill:#FFFFFF;" width="2400" height="2000"/>
	<linearGradient id="SVGID_1_" gradientUnits="userSpaceOnUse" x1="869.2689" y1="1689.6462" x2="1312.7266" y2="34.6395">
		<stop  offset="0" style="stop-color:#6AD7FF"/>
		<stop  offset="1" style="stop-color:#8932A2"/>
	</linearGradient>
	<path style="fill:url(#SVGID_1_);" d="M2079.833,256.828c-141.677-99.293-383.012-46.186-761.427-7.565
		c-375.504,38.322-537.195,41.066-760.391-5.392c-211.918-44.11-352.597,39.781-357.679,198.004
		c-5.082,158.222,48.39,361.664,110.906,501.693c262.32,587.568,661.762,799.959,958.96,848.561
		c297.204,48.597,353.371-132.586,416.555-412.289c50.817-224.973,182.031-453.37,375.106-650.493
		C2264.152,522.816,2221.512,356.121,2079.833,256.828z"/>
	
		<linearGradient id="SVGID_00000157279449051300574050000013744742204604524209_" gradientUnits="userSpaceOnUse" x1="485.4909" y1="1370.3256" x2="1550.1925" y2="305.6239">
		<stop  offset="0" style="stop-color:#6AD7FF"/>
		<stop  offset="1" style="stop-color:#8932A2"/>
	</linearGradient>
	<path style="fill:url(#SVGID_00000157279449051300574050000013744742204604524209_);" d="M1980.906,741.824
		c-85.493-124.799-293.461-155.727-607.035-240.72c-311.16-84.338-441.281-131.9-606.813-238.623
		c-157.164-101.328-293.242-76.092-341.691,51.668c-48.446,127.76-62.734,310.513-52,444.225
		c45.051,561.057,305.031,857.693,529.164,988.963c224.133,131.265,319.895,0.477,448.898-208.683
		c103.762-168.231,272.801-314.497,482.555-416.145C2053.753,1016.008,2066.399,866.621,1980.906,741.824z"/>
	
		<linearGradient id="SVGID_00000077306536185904392390000014126500996696785847_" gradientUnits="userSpaceOnUse" x1="544.2246" y1="1109.3392" x2="2005.2173" y2="717.8674">
		<stop  offset="0" style="stop-color:#8932A2"/>
		<stop  offset="1" style="stop-color:#FFB56A"/>
	</linearGradient>
	<path style="fill:url(#SVGID_00000077306536185904392390000014126500996696785847_);" d="M1884.582,452.486
		c-105.519-82.996-293.125-50.843-585.715-35.291c-290.336,15.432-414.863,11.334-584.988-33.554
		c-161.528-42.619-272.762,17.455-282.27,140.801c-9.512,123.348,24.441,284.26,67.598,396.01
		c181.082,468.905,480.969,650.159,707.969,699.576c227,49.418,276.636-89.887,335.16-305.847
		c47.07-173.7,156.132-346.969,311.695-493.436C2017.016,667.287,1990.102,535.484,1884.582,452.486z"/>
	<rect style="opacity:0.7;fill:#FAD4F9;" width="2400" height="2000"/>
</g>
<g>
	<g>
		<rect x="303.604" y="475.48" style="fill:#FFFFFF;" width="1792.792" height="1049.039"/>
		<rect x="364.33" y="532.663" style="fill:#BDD1F9;" width="1669.95" height="943.008"/>
	</g>
	<g>
		<path style="fill:#7C9AF2;" d="M479.463,1064.788c8.731,54.333,52.526,51.025,36.018,94.547
			c-21.184,55.848-26.314,94.143,14.257,159.83c15.758,25.513,44.868,66.377,125.688,64.907
			c61.906-1.125,87.419-37.894,97.924-86.668c4.336-20.133-23.247-72.753,32.641-83.292c22.03-4.154,72.844,23.002,96.798,10.13
			c37.337-20.063,19.135-33.767,38.269-94.547c11.479-36.461,35.317-37.46,39.395-4.502c6.471,52.297,21.668,61.653,33.767,75.413
			c14.514,16.506,90.956,66.877,118.184,75.413c64.929,20.355,37.261,89.398,106.178,118.934
			c73.537,31.516,223.612,26.692,319.66-41.427c36.156-25.642,61.868-119.738,121.561-131.159
			c155.225-29.697,131.105-123.776,238.863-121.897c83.723,1.459,125.819-99.725,94.303-199.109
			c-19.793-62.416-64.435-58.397-76.983-98.93c-14.105-45.563,55.967-52.597,46.968-96.004
			c-16.823-81.15-125.875-96.62-183.522-96.048c-151.145,1.501-138.029,75.027-205.547,69.092
			c-59.129-5.199-138.688-24.13-194.722-34.892c-102.966-19.774-107.981,65.915-173.337,73.161
			c-76.81,8.517-126.969,2.629-209.354-41.646c-23.342-12.544-46.148-69.785-106.928-81.179
			c-36.287-6.803-99.868,7.899-138.444,17.872c-70.497,18.227-111.431,32.917-156.453,9.644
			c-67.68-34.984-162.563,32.46-175.447,86.304c-5.071,21.19-20.401,82.166,23.172,181.253c7.453,16.948-11.203,67.423-4.178,83.846
			C451.653,1005.301,473.46,1027.43,479.463,1064.788z"/>
		<path style="fill:#7C9AF2;" d="M1718.332,1377.761c42.38,0.657,50.261-11.916,82.166-8.63
			c47.085,4.849,86.501,28.957,117.798,6.629c47.002-33.532,67.365-119.79,1.361-117.826
			c-72.783,2.167-111.431,32.917-156.453,9.645c-67.68-34.984-92.984-30.215-129.968,10.984
			c-32.666,36.389-33.445,58.146-13.578,102.45c7.575,16.893-1.501,55.528,34.142,55.089
			C1688.022,1435.68,1667.806,1376.978,1718.332,1377.761z"/>
		<path style="fill:#BDD1F9;" d="M1519.584,1256.934c32.239,13.485,30.975-5.629,9.653-24.871
			c-15.383-13.882-9.603-31.728-23.637-39.02c-13.388-6.956-32.266,2.742-50.305-4.587c-34.795-14.136-25.766,11.388-52.121,12.841
			c-29.89,1.648-30.129-19.841-50.275-22.133c-33.016-3.755-51.793,21.629-56.278,37.516c-6.425,22.763,20.33,19.527,11.769,54.797
			c-6.552,26.994,25.107,46.021,38.13,46.128c19.707,0.162,25.46-32.19,36.018-33.392c46.148-5.253,43.001-20.14,57.779-25.513
			C1469.207,1248.199,1478.962,1239.943,1519.584,1256.934z"/>
		<g>
			
				<ellipse transform="matrix(0.0469 -0.9989 0.9989 0.0469 464.4263 3116.6697)" style="fill:#060633;" cx="1865.506" cy="1314.952" rx="110.396" ry="110.396"/>
			
				<ellipse transform="matrix(0.0719 -0.9974 0.9974 0.0719 419.7701 3081.0378)" style="fill:#FFFFFF;" cx="1865.507" cy="1314.952" rx="101.029" ry="101.03"/>
			<path style="fill:#DDE7FE;" d="M1812.718,1314.939c0.007-29.155,23.647-52.784,52.801-52.777
				c29.156,0.007,52.784,23.647,52.777,52.802c-0.007,29.155-23.647,52.783-52.802,52.776
				C1836.34,1367.734,1812.711,1344.094,1812.718,1314.939z"/>
			<g>
				<path style="fill:#2F3DBC;" d="M1785.086,1312.478l0.375,2.575l0.55-2.319l3.865-13.621l2.171,0l3.765,13.623l0.536,2.36
					l0.416-2.628l3.034-13.352l2.585,0l-4.736,19.519l-2.347-0.001l-4.018-14.226l-0.309-1.488l-0.309,1.488l-4.173,14.224l-2.346,0
					l-4.714-19.522l2.575,0.001L1785.086,1312.478z"/>
			</g>
			<g>
				<path style="fill:#2F3DBC;" d="M1944.765,1309.647l-8.46-0.002l-0.002,6.918l9.828,0.002l0,2.105l-12.401-0.003l0.005-19.52
					l12.266,0.003l-0.001,2.105l-9.693-0.002l-0.002,6.288l8.461,0.002L1944.765,1309.647z"/>
			</g>
			<g>
				<path style="fill:#2F3DBC;" d="M1875.011,1242.069l-2.588,0l-9.822-15.045l-0.004,15.042l-2.588-0.001l0.005-19.521l2.588,0.001
					l9.85,15.112l0.003-15.11l2.56,0L1875.011,1242.069z"/>
			</g>
			<g>
				<path style="fill:#2F3DBC;" d="M1865.724,1396.03c-2.207-0.635-3.814-1.416-4.819-2.34c-1.006-0.926-1.509-2.068-1.508-3.426
					c0-1.537,0.616-2.809,1.844-3.814c1.23-1.006,2.828-1.507,4.794-1.507c1.341,0,2.536,0.259,3.587,0.778
					c1.051,0.518,1.863,1.234,2.439,2.145s0.864,1.909,0.864,2.99l-2.587-0.001c0-1.184-0.375-2.115-1.126-2.792
					c-0.751-0.677-1.81-1.016-3.177-1.017c-1.269,0-2.259,0.28-2.969,0.839c-0.711,0.559-1.067,1.336-1.067,2.33
					c0,0.797,0.337,1.471,1.013,2.022c0.673,0.551,1.823,1.055,3.443,1.512c1.623,0.457,2.893,0.96,3.808,1.51
					c0.916,0.55,1.594,1.192,2.038,1.924c0.441,0.733,0.663,1.596,0.662,2.588c0,1.582-0.617,2.849-1.851,3.801
					c-1.234,0.952-2.883,1.427-4.946,1.427c-1.341,0-2.593-0.258-3.755-0.772c-1.161-0.514-2.057-1.217-2.688-2.112
					c-0.63-0.894-0.945-1.909-0.944-3.043l2.588,0.001c0,1.18,0.435,2.112,1.307,2.796c0.871,0.684,2.034,1.026,3.493,1.027
					c1.358,0,2.398-0.277,3.123-0.831c0.725-0.554,1.086-1.309,1.086-2.266c0-0.956-0.334-1.696-1.003-2.219
					C1868.701,1397.056,1867.484,1396.539,1865.724,1396.03z"/>
			</g>
			<g>
				<polygon style="fill:#FFFFFF;" points="1815.027,1316.629 1865.505,1321.896 1865.507,1312.401 				"/>
				<polygon style="fill:#FFFFFF;" points="1915.986,1316.653 1865.505,1321.896 1865.507,1312.401 				"/>
			</g>
			<g>
				<polygon style="fill:#FFFFFF;" points="1835.492,1286.005 1862.844,1318.113 1868.289,1312.401 				"/>
				<polygon style="fill:#FFFFFF;" points="1896.222,1343.899 1862.844,1318.113 1868.289,1312.401 				"/>
			</g>
			<g>
				<polygon style="fill:#FFFFFF;" points="1898.666,1286.02 1871.299,1318.115 1865.857,1312.401 				"/>
				<polygon style="fill:#FFFFFF;" points="1837.91,1343.885 1871.299,1318.115 1865.857,1312.401 				"/>
			</g>
			<g>
				<polygon style="fill:#FFFFFF;" points="1866.026,1268.172 1860.759,1318.65 1870.252,1318.652 				"/>
				<polygon style="fill:#FFFFFF;" points="1866.002,1369.131 1860.759,1318.65 1870.252,1318.652 				"/>
			</g>
			<g>
				<polygon style="fill:#7C9AF2;" points="1884.763,1235.822 1854.85,1314.787 1876.486,1319.544 				"/>
				<polygon style="fill:#FA7267;" points="1846.249,1399.979 1876.163,1321.013 1854.527,1316.256 				"/>
				<path style="fill:#060633;" d="M1854.231,1314.652c1.389-6.316,7.636-10.31,13.952-8.922c6.316,1.388,10.31,7.634,8.922,13.95
					c-1.389,6.316-7.635,10.311-13.952,8.922C1856.837,1327.213,1852.843,1320.968,1854.231,1314.652z"/>
			</g>
		</g>
		<g>
			<path style="fill:#474FEA;" d="M951.082,750.83c0,0-35.829-97.082-48.505-97.466c-12.678-0.383-29.585,56.247-42.173,54.672
				c-12.588-1.575-13.315-19.501-20.443-20.353c-7.128-0.852-48.258,63.109-48.258,63.109L951.082,750.83L951.082,750.83z"/>
			<path style="fill:#FFFFFF;" d="M897.382,669.718c3.358-0.41,1.74,6.869,4.227,6.881c2.488,0.013,5.603-8.954,8.035-9.791
				c1.861-0.642,2.83,1.527,6.739,3.527c-5.493-10.026-10.459-16.879-13.808-16.98c-5.134-0.156-10.962,9.041-16.916,19.936
				C890.151,672.972,894.534,670.065,897.382,669.718L897.382,669.718z"/>
		</g>
		<g>
			<path style="fill:#474FEA;" d="M1498.624,1008.206c0,0-35.829-97.082-48.505-97.466c-12.678-0.383-29.585,56.247-42.173,54.672
				c-12.588-1.575-13.315-19.501-20.443-20.353c-7.128-0.852-48.258,63.109-48.258,63.109L1498.624,1008.206L1498.624,1008.206z"/>
			<path style="fill:#FFFFFF;" d="M1444.924,927.094c3.358-0.41,1.74,6.869,4.227,6.881c2.488,0.013,5.603-8.954,8.035-9.791
				c1.861-0.642,2.83,1.527,6.739,3.527c-5.493-10.026-10.459-16.879-13.808-16.98c-5.135-0.156-10.962,9.041-16.916,19.936
				C1437.693,930.348,1442.077,927.442,1444.924,927.094L1444.924,927.094z"/>
		</g>
		<g>
			<path style="fill:#474FEA;" d="M1970.435,1033.698c0,0-35.828-97.082-48.505-97.466c-12.678-0.383-29.585,56.246-42.173,54.672
				c-12.588-1.575-13.315-19.501-20.443-20.353c-7.128-0.852-48.258,63.109-48.258,63.109L1970.435,1033.698L1970.435,1033.698z"/>
			<path style="fill:#FFFFFF;" d="M1916.735,952.586c3.358-0.409,1.74,6.869,4.227,6.881c2.488,0.013,5.603-8.954,8.035-9.792
				c1.861-0.642,2.83,1.527,6.74,3.528c-5.493-10.027-10.459-16.879-13.808-16.98c-5.135-0.156-10.963,9.041-16.917,19.935
				C1909.504,955.84,1913.888,952.934,1916.735,952.586L1916.735,952.586z"/>
		</g>
		<g>
			<g>
				<path style="fill:#060633;" d="M686.748,862.415c4.762,0.736,9.04,3.23,9.493,8.594c0.429,5.078-3.476,10.076-1.595,15.115
					c1.932,5.173,7.531,6.975,5.44,13.345c-0.745,2.267-1.935,4.475-1.891,6.861c0.092,5.002,4.95,8.088,7.308,12.027
					c3.044,5.083,1.857,12.049-2.266,16.183c-7.842,7.857-21.034,4.928-30.854,4.113c-5.705-0.472-10.836-3.432-12.224-9.373
					c-1.611-6.896,2.75-10.185,5.499-15.613c2.674-5.283-0.533-11.545-0.571-17.465c-0.044-6.618,5.323-10.215,6.344-16.29
					c0.739-4.393-1.706-8.94,0.784-13.077c1.319-2.191,3.742-3.534,6.234-4.106C680.918,862.159,683.918,861.977,686.748,862.415
					L686.748,862.415z"/>
				<path style="fill:#474FEA;" d="M683.258,963.497c-0.186-0.001-0.336-0.152-0.334-0.338l0.582-87.231
					c0.001-0.186,0.153-0.335,0.339-0.334c0.186,0.001,0.336,0.153,0.334,0.339l-0.582,87.23
					C683.595,963.349,683.444,963.499,683.258,963.497L683.258,963.497z"/>
				<path style="fill:#474FEA;" d="M683.579,915.381c-0.128-0.001-0.25-0.074-0.305-0.2l-9.433-21.01
					c-0.076-0.17,0-0.369,0.169-0.444c0.17-0.077,0.369-0.001,0.445,0.168l9.433,21.011c0.076,0.169,0,0.368-0.17,0.445
					C683.673,915.371,683.626,915.381,683.579,915.381L683.579,915.381z"/>
				<path style="fill:#474FEA;" d="M683.477,930.509c-0.066-0.001-0.133-0.021-0.192-0.062c-0.151-0.106-0.188-0.316-0.081-0.469
					l9.516-13.483c0.107-0.152,0.317-0.188,0.469-0.08c0.152,0.106,0.188,0.316,0.081,0.469l-9.516,13.483
					C683.689,930.459,683.584,930.509,683.477,930.509L683.477,930.509z"/>
			</g>
			<g>
				<path style="fill:#474FEA;" d="M650.827,846.697c6.312,0.977,11.983,4.281,12.583,11.391c0.569,6.73-4.608,13.354-2.114,20.034
					c2.56,6.856,9.982,9.245,7.211,17.686c-0.987,3.007-2.565,5.932-2.507,9.096c0.121,6.628,6.561,10.719,9.687,15.94
					c4.034,6.737,2.462,15.971-3.004,21.449c-10.394,10.416-27.878,6.532-40.895,5.453c-7.562-0.628-14.363-4.55-16.202-12.424
					c-2.136-9.141,3.644-13.499,7.288-20.693c3.545-7.001-0.706-15.302-0.758-23.149c-0.057-8.773,7.055-13.541,8.409-21.592
					c0.979-5.822-2.262-11.849,1.04-17.333c1.748-2.904,4.96-4.683,8.263-5.443C643.1,846.358,647.077,846.116,650.827,846.697
					L650.827,846.697z"/>
				<path style="fill:#17152B;" d="M646.201,980.678c-0.247-0.002-0.445-0.204-0.443-0.451l0.771-115.619
					c0.002-0.247,0.203-0.444,0.449-0.443c0.246,0.002,0.445,0.203,0.443,0.449l-0.771,115.619
					C646.648,980.48,646.448,980.68,646.201,980.678L646.201,980.678z"/>
				<path style="fill:#17152B;" d="M646.627,916.901c-0.169-0.001-0.331-0.1-0.404-0.264l-12.502-27.849
					c-0.101-0.225-0.001-0.489,0.224-0.589c0.224-0.102,0.489-0.001,0.59,0.224l12.503,27.849c0.101,0.225,0,0.489-0.225,0.59
					C646.752,916.888,646.689,916.901,646.627,916.901L646.627,916.901z"/>
				<path style="fill:#17152B;" d="M646.492,936.952c-0.088,0-0.176-0.027-0.254-0.081c-0.201-0.142-0.249-0.421-0.107-0.622
					l12.613-17.871c0.142-0.201,0.42-0.25,0.621-0.107c0.202,0.141,0.25,0.42,0.108,0.622l-12.612,17.871
					C646.773,936.887,646.633,936.953,646.492,936.952L646.492,936.952z"/>
			</g>
		</g>
		<g>
			<g>
				<path style="fill:#060633;" d="M1093.327,760.997c3.337,0.516,6.336,2.264,6.653,6.023c0.301,3.559-2.436,7.062-1.118,10.593
					c1.354,3.625,5.278,4.889,3.812,9.353c-0.522,1.589-1.356,3.136-1.325,4.808c0.064,3.505,3.469,5.669,5.122,8.429
					c2.133,3.562,1.302,8.445-1.588,11.342c-5.496,5.507-14.741,3.454-21.624,2.883c-3.998-0.331-7.594-2.405-8.567-6.569
					c-1.129-4.833,1.927-7.138,3.854-10.942c1.874-3.703-0.373-8.092-0.401-12.24c-0.031-4.638,3.73-7.159,4.446-11.417
					c0.518-3.079-1.196-6.265,0.549-9.165c0.924-1.535,2.623-2.477,4.369-2.878C1089.241,760.817,1091.344,760.689,1093.327,760.997
					L1093.327,760.997z"/>
				<path style="fill:#474FEA;" d="M1090.881,831.839c-0.13,0-0.235-0.107-0.234-0.237l0.408-61.135
					c0.001-0.13,0.107-0.235,0.237-0.234c0.13,0.001,0.235,0.107,0.234,0.237l-0.408,61.135
					C1091.118,831.735,1091.011,831.841,1090.881,831.839L1090.881,831.839z"/>
				<path style="fill:#474FEA;" d="M1091.106,798.117c-0.09-0.001-0.175-0.052-0.214-0.14l-6.611-14.725
					c-0.053-0.119,0-0.259,0.119-0.311c0.119-0.054,0.259-0.001,0.312,0.118l6.611,14.726c0.053,0.119,0,0.258-0.119,0.312
					C1091.172,798.111,1091.139,798.118,1091.106,798.117L1091.106,798.117z"/>
				<path style="fill:#474FEA;" d="M1091.035,808.719c-0.046,0-0.093-0.015-0.134-0.044c-0.106-0.074-0.132-0.222-0.057-0.329
					l6.669-9.449c0.075-0.106,0.222-0.132,0.329-0.056c0.106,0.074,0.131,0.222,0.057,0.329l-6.669,9.45
					C1091.183,808.685,1091.109,808.72,1091.035,808.719L1091.035,808.719z"/>
			</g>
			<g>
				<path style="fill:#474FEA;" d="M1068.152,749.98c4.423,0.685,8.398,3,8.818,7.983c0.398,4.717-3.229,9.359-1.482,14.041
					c1.794,4.805,6.995,6.48,5.053,12.395c-0.692,2.107-1.797,4.158-1.757,6.375c0.085,4.646,4.598,7.512,6.789,11.171
					c2.827,4.721,1.725,11.193-2.105,15.032c-7.285,7.3-19.538,4.578-28.661,3.822c-5.3-0.44-10.066-3.189-11.355-8.707
					c-1.497-6.406,2.554-9.461,5.108-14.503c2.484-4.907-0.495-10.724-0.531-16.224c-0.04-6.148,4.945-9.49,5.894-15.133
					c0.686-4.08-1.585-8.304,0.729-12.148c1.225-2.035,3.476-3.282,5.791-3.815C1062.736,749.743,1065.523,749.573,1068.152,749.98
					L1068.152,749.98z"/>
				<path style="fill:#17152B;" d="M1064.91,843.881c-0.173-0.001-0.312-0.143-0.311-0.316l0.54-81.031
					c0.002-0.173,0.143-0.311,0.315-0.311c0.173,0.001,0.312,0.142,0.311,0.315l-0.54,81.032
					C1065.223,843.742,1065.083,843.882,1064.91,843.881L1064.91,843.881z"/>
				<path style="fill:#17152B;" d="M1065.208,799.182c-0.119-0.001-0.232-0.07-0.283-0.185l-8.762-19.518
					c-0.071-0.157,0-0.342,0.157-0.413c0.157-0.071,0.343,0,0.414,0.157l8.762,19.518c0.071,0.158,0,0.343-0.157,0.414
					C1065.296,799.174,1065.252,799.182,1065.208,799.182L1065.208,799.182z"/>
				<path style="fill:#17152B;" d="M1065.114,813.235c-0.062,0-0.124-0.019-0.178-0.057c-0.141-0.099-0.175-0.295-0.075-0.436
					l8.84-12.524c0.099-0.141,0.294-0.175,0.436-0.075c0.141,0.099,0.175,0.294,0.075,0.436l-8.839,12.525
					C1065.311,813.19,1065.213,813.236,1065.114,813.235L1065.114,813.235z"/>
			</g>
			<g>
				<path style="fill:#474FEA;" d="M1114.137,782.415c2.73,0.423,5.182,1.852,5.442,4.926c0.246,2.911-1.993,5.775-0.914,8.664
					c1.107,2.965,4.317,3.998,3.118,7.649c-0.427,1.3-1.109,2.565-1.084,3.934c0.052,2.867,2.837,4.635,4.189,6.893
					c1.744,2.913,1.065,6.907-1.299,9.276c-4.495,4.505-12.057,2.825-17.686,2.358c-3.271-0.271-6.212-1.968-7.007-5.373
					c-0.924-3.953,1.576-5.838,3.152-8.949c1.533-3.028-0.305-6.617-0.328-10.011c-0.025-3.794,3.051-5.856,3.637-9.338
					c0.423-2.518-0.978-5.124,0.45-7.496c0.756-1.256,2.145-2.025,3.574-2.354C1110.795,782.268,1112.515,782.164,1114.137,782.415
					L1114.137,782.415z"/>
				<path style="fill:#17152B;" d="M1112.136,840.358c-0.107-0.001-0.193-0.088-0.192-0.195l0.333-50.002
					c0.001-0.107,0.088-0.192,0.194-0.192c0.107,0.001,0.193,0.088,0.192,0.194l-0.333,50.002
					C1112.329,840.272,1112.243,840.358,1112.136,840.358L1112.136,840.358z"/>
				<path style="fill:#17152B;" d="M1112.32,812.776c-0.073,0-0.143-0.043-0.175-0.114l-5.407-12.044
					c-0.044-0.097,0-0.211,0.097-0.255c0.097-0.044,0.211,0,0.255,0.097l5.407,12.044c0.044,0.097,0,0.212-0.097,0.255
					C1112.374,812.771,1112.347,812.776,1112.32,812.776L1112.32,812.776z"/>
				<path style="fill:#17152B;" d="M1112.262,821.448c-0.038,0-0.076-0.012-0.11-0.035c-0.087-0.061-0.108-0.182-0.047-0.269
					l5.455-7.729c0.061-0.087,0.182-0.108,0.269-0.046c0.087,0.061,0.108,0.182,0.047,0.269l-5.454,7.729
					C1112.383,821.419,1112.323,821.448,1112.262,821.448L1112.262,821.448z"/>
			</g>
		</g>
		<g>
			<g>
				<path style="fill:#060633;" d="M1795.259,870.677c4.846,0.749,9.199,3.287,9.661,8.745c0.437,5.167-3.537,10.254-1.623,15.381
					c1.966,5.264,7.664,7.098,5.536,13.58c-0.758,2.307-1.969,4.554-1.924,6.982c0.093,5.09,5.038,8.231,7.437,12.239
					c3.097,5.172,1.89,12.262-2.306,16.468c-7.98,7.996-21.405,5.015-31.399,4.186c-5.806-0.481-11.027-3.493-12.44-9.539
					c-1.64-7.018,2.799-10.365,5.596-15.888c2.721-5.376-0.542-11.749-0.581-17.773c-0.045-6.735,5.417-10.395,6.456-16.577
					c0.752-4.471-1.737-9.097,0.798-13.308c1.342-2.229,3.808-3.596,6.344-4.179
					C1789.326,870.417,1792.379,870.231,1795.259,870.677L1795.259,870.677z"/>
				<path style="fill:#474FEA;" d="M1791.707,973.543c-0.189-0.001-0.342-0.155-0.34-0.344l0.592-88.77
					c0.001-0.189,0.156-0.341,0.345-0.34c0.189,0.001,0.341,0.155,0.34,0.345l-0.592,88.77
					C1792.051,973.392,1791.896,973.545,1791.707,973.543L1791.707,973.543z"/>
				<path style="fill:#474FEA;" d="M1792.035,924.578c-0.13-0.001-0.254-0.076-0.311-0.203l-9.599-21.381
					c-0.077-0.173,0-0.376,0.172-0.451c0.173-0.078,0.375-0.001,0.453,0.171l9.599,21.382c0.078,0.172,0,0.375-0.173,0.453
					C1792.13,924.568,1792.082,924.578,1792.035,924.578L1792.035,924.578z"/>
				<path style="fill:#474FEA;" d="M1791.931,939.972c-0.067-0.001-0.135-0.022-0.195-0.063c-0.154-0.108-0.191-0.322-0.082-0.478
					l9.684-13.721c0.109-0.154,0.322-0.191,0.478-0.081c0.154,0.107,0.191,0.322,0.082,0.477l-9.684,13.721
					C1792.146,939.922,1792.039,939.973,1791.931,939.972L1791.931,939.972z"/>
			</g>
			<g>
				<path style="fill:#474FEA;" d="M1758.705,854.681c6.423,0.995,12.194,4.357,12.805,11.592c0.579,6.849-4.689,13.59-2.151,20.387
					c2.605,6.977,10.158,9.409,7.338,17.998c-1.005,3.06-2.61,6.037-2.552,9.257c0.123,6.746,6.677,10.908,9.857,16.221
					c4.105,6.855,2.505,16.252-3.057,21.828c-10.577,10.6-28.37,6.647-41.617,5.549c-7.696-0.639-14.616-4.63-16.488-12.643
					c-2.174-9.302,3.709-13.738,7.416-21.058c3.607-7.125-0.719-15.572-0.771-23.558c-0.058-8.927,7.18-13.78,8.558-21.974
					c0.996-5.925-2.302-12.058,1.058-17.639c1.778-2.955,5.047-4.765,8.409-5.539
					C1750.84,854.337,1754.888,854.091,1758.705,854.681L1758.705,854.681z"/>
				<path style="fill:#17152B;" d="M1753.997,991.027c-0.251-0.002-0.453-0.208-0.451-0.458l0.784-117.66
					c0.002-0.251,0.207-0.452,0.457-0.451c0.251,0.002,0.453,0.206,0.451,0.457l-0.784,117.66
					C1754.452,990.826,1754.248,991.029,1753.997,991.027L1753.997,991.027z"/>
				<path style="fill:#17152B;" d="M1754.43,926.124c-0.172-0.001-0.337-0.101-0.411-0.269l-12.723-28.34
					c-0.103-0.229-0.001-0.497,0.228-0.6c0.229-0.103,0.498-0.001,0.601,0.228l12.723,28.341c0.103,0.229,0.001,0.498-0.229,0.601
					C1754.557,926.111,1754.493,926.124,1754.43,926.124L1754.43,926.124z"/>
				<path style="fill:#17152B;" d="M1754.293,946.529c-0.09,0-0.179-0.027-0.259-0.083c-0.205-0.144-0.254-0.429-0.109-0.633
					l12.835-18.186c0.144-0.204,0.427-0.254,0.633-0.109c0.206,0.144,0.255,0.427,0.11,0.633l-12.835,18.187
					C1754.579,946.463,1754.436,946.531,1754.293,946.529L1754.293,946.529z"/>
			</g>
			<g>
				<path style="fill:#474FEA;" d="M1825.475,901.777c3.963,0.614,7.525,2.689,7.901,7.153c0.357,4.226-2.893,8.386-1.328,12.581
					c1.608,4.306,6.268,5.806,4.528,11.106c-0.62,1.888-1.611,3.725-1.574,5.712c0.076,4.162,4.12,6.731,6.083,10.009
					c2.533,4.23,1.546,10.029-1.887,13.469c-6.527,6.541-17.506,4.102-25.68,3.424c-4.749-0.394-9.019-2.857-10.174-7.802
					c-1.341-5.74,2.288-8.477,4.576-12.994c2.226-4.396-0.443-9.609-0.476-14.537c-0.036-5.509,4.431-8.503,5.281-13.559
					c0.615-3.656-1.42-7.441,0.653-10.884c1.098-1.823,3.115-2.941,5.189-3.418C1820.623,901.565,1823.12,901.413,1825.475,901.777
					L1825.475,901.777z"/>
				<path style="fill:#17152B;" d="M1822.57,985.912c-0.155-0.001-0.28-0.128-0.278-0.283l0.484-72.604
					c0.001-0.155,0.128-0.279,0.282-0.278c0.155,0.001,0.279,0.127,0.278,0.282l-0.484,72.604
					C1822.851,985.788,1822.725,985.913,1822.57,985.912L1822.57,985.912z"/>
				<path style="fill:#17152B;" d="M1822.838,945.862c-0.106-0.001-0.208-0.063-0.254-0.166l-7.851-17.488
					c-0.063-0.141,0-0.307,0.141-0.37c0.141-0.064,0.307,0,0.37,0.141l7.851,17.488c0.063,0.141,0,0.307-0.141,0.37
					C1822.916,945.854,1822.877,945.862,1822.838,945.862L1822.838,945.862z"/>
				<path style="fill:#17152B;" d="M1822.753,958.454c-0.056,0-0.111-0.017-0.16-0.051c-0.126-0.089-0.156-0.264-0.068-0.391
					l7.92-11.222c0.089-0.126,0.264-0.157,0.39-0.067c0.127,0.089,0.157,0.264,0.068,0.39l-7.92,11.222
					C1822.929,958.413,1822.842,958.455,1822.753,958.454L1822.753,958.454z"/>
			</g>
		</g>
		<g>
			<g>
				<path style="fill:#060633;" d="M1586.228,1100.616c3.338,0.516,6.336,2.264,6.653,6.023c0.301,3.559-2.436,7.062-1.118,10.593
					c1.354,3.625,5.278,4.889,3.812,9.352c-0.522,1.589-1.356,3.136-1.325,4.808c0.064,3.505,3.469,5.668,5.122,8.429
					c2.133,3.562,1.302,8.445-1.588,11.341c-5.496,5.507-14.741,3.454-21.624,2.883c-3.998-0.331-7.594-2.405-8.567-6.569
					c-1.129-4.833,1.927-7.138,3.854-10.942c1.874-3.703-0.373-8.092-0.4-12.241c-0.031-4.638,3.73-7.159,4.446-11.417
					c0.518-3.079-1.196-6.265,0.549-9.165c0.925-1.535,2.623-2.477,4.369-2.878
					C1582.142,1100.436,1584.245,1100.308,1586.228,1100.616L1586.228,1100.616z"/>
				<path style="fill:#474FEA;" d="M1583.782,1171.459c-0.13,0-0.235-0.107-0.234-0.237l0.408-61.136
					c0.001-0.13,0.107-0.235,0.237-0.234c0.13,0.001,0.235,0.107,0.234,0.238l-0.408,61.135
					C1584.019,1171.355,1583.912,1171.46,1583.782,1171.459L1583.782,1171.459z"/>
				<path style="fill:#474FEA;" d="M1584.007,1137.736c-0.09,0-0.175-0.052-0.214-0.14l-6.611-14.725
					c-0.053-0.119,0-0.259,0.119-0.311c0.119-0.054,0.259-0.001,0.312,0.118l6.611,14.726c0.053,0.118,0,0.258-0.119,0.312
					C1584.073,1137.73,1584.04,1137.737,1584.007,1137.736L1584.007,1137.736z"/>
				<path style="fill:#474FEA;" d="M1583.936,1148.339c-0.046,0-0.093-0.015-0.134-0.044c-0.106-0.074-0.132-0.222-0.057-0.329
					l6.669-9.449c0.075-0.106,0.222-0.131,0.329-0.056c0.106,0.074,0.131,0.222,0.057,0.329l-6.669,9.449
					C1584.084,1148.304,1584.01,1148.339,1583.936,1148.339L1583.936,1148.339z"/>
			</g>
			<g>
				<path style="fill:#474FEA;" d="M1561.053,1089.599c4.423,0.685,8.398,3,8.818,7.984c0.398,4.717-3.229,9.359-1.482,14.041
					c1.794,4.805,6.995,6.48,5.053,12.395c-0.692,2.107-1.797,4.157-1.757,6.375c0.085,4.646,4.598,7.512,6.789,11.171
					c2.827,4.721,1.725,11.193-2.105,15.033c-7.285,7.3-19.539,4.578-28.661,3.822c-5.3-0.44-10.066-3.189-11.355-8.707
					c-1.497-6.406,2.554-9.461,5.107-14.503c2.484-4.907-0.495-10.724-0.531-16.224c-0.04-6.148,4.945-9.49,5.894-15.133
					c0.686-4.08-1.585-8.304,0.729-12.148c1.225-2.035,3.476-3.282,5.791-3.814
					C1555.637,1089.362,1558.425,1089.193,1561.053,1089.599L1561.053,1089.599z"/>
				<path style="fill:#17152B;" d="M1557.811,1183.5c-0.173-0.001-0.312-0.143-0.311-0.316l0.54-81.031
					c0.001-0.173,0.142-0.312,0.315-0.311c0.173,0.001,0.312,0.142,0.311,0.315l-0.54,81.032
					C1558.124,1183.361,1557.984,1183.501,1557.811,1183.5L1557.811,1183.5z"/>
				<path style="fill:#17152B;" d="M1558.109,1138.802c-0.119-0.001-0.232-0.07-0.283-0.185l-8.762-19.518
					c-0.071-0.157,0-0.342,0.157-0.413c0.157-0.071,0.343,0,0.414,0.157l8.762,19.518c0.071,0.158,0,0.343-0.158,0.414
					C1558.197,1138.793,1558.153,1138.802,1558.109,1138.802L1558.109,1138.802z"/>
				<path style="fill:#17152B;" d="M1558.015,1152.854c-0.062,0-0.124-0.019-0.178-0.057c-0.141-0.099-0.175-0.295-0.075-0.436
					l8.84-12.525c0.099-0.141,0.294-0.175,0.436-0.075c0.141,0.099,0.175,0.294,0.075,0.436l-8.839,12.525
					C1558.212,1152.809,1558.114,1152.855,1558.015,1152.854L1558.015,1152.854z"/>
			</g>
		</g>
		<g>
			<g>
				<path style="fill:#060633;" d="M1318.089,1241.443c3.338,0.516,6.336,2.264,6.653,6.023c0.301,3.559-2.436,7.062-1.118,10.593
					c1.354,3.626,5.278,4.889,3.812,9.353c-0.522,1.589-1.356,3.136-1.325,4.808c0.064,3.505,3.469,5.668,5.122,8.429
					c2.133,3.562,1.302,8.445-1.588,11.342c-5.496,5.507-14.741,3.454-21.624,2.883c-3.999-0.331-7.594-2.405-8.567-6.569
					c-1.129-4.833,1.927-7.138,3.854-10.942c1.874-3.703-0.373-8.092-0.4-12.24c-0.031-4.638,3.73-7.159,4.446-11.417
					c0.518-3.079-1.196-6.265,0.549-9.165c0.925-1.535,2.623-2.476,4.369-2.878
					C1314.003,1241.263,1316.106,1241.135,1318.089,1241.443L1318.089,1241.443z"/>
				<path style="fill:#474FEA;" d="M1315.643,1312.285c-0.13,0-0.235-0.107-0.234-0.237l0.408-61.135
					c0.001-0.13,0.107-0.235,0.237-0.234c0.13,0.001,0.235,0.107,0.234,0.238l-0.408,61.135
					C1315.879,1312.182,1315.773,1312.286,1315.643,1312.285L1315.643,1312.285z"/>
				<path style="fill:#474FEA;" d="M1315.868,1278.563c-0.09-0.001-0.175-0.052-0.214-0.14l-6.611-14.725
					c-0.053-0.119,0-0.259,0.119-0.311c0.119-0.054,0.259-0.001,0.312,0.118l6.611,14.726c0.053,0.118,0,0.258-0.119,0.312
					C1315.934,1278.557,1315.901,1278.564,1315.868,1278.563L1315.868,1278.563z"/>
				<path style="fill:#474FEA;" d="M1315.797,1289.165c-0.046,0-0.093-0.015-0.134-0.044c-0.106-0.074-0.132-0.222-0.057-0.329
					l6.669-9.449c0.075-0.106,0.222-0.132,0.329-0.056c0.106,0.074,0.131,0.221,0.057,0.329l-6.669,9.449
					C1315.945,1289.131,1315.871,1289.166,1315.797,1289.165L1315.797,1289.165z"/>
			</g>
			<g>
				<path style="fill:#474FEA;" d="M1292.914,1230.426c4.424,0.685,8.398,3.001,8.819,7.983c0.398,4.717-3.229,9.359-1.482,14.041
					c1.794,4.805,6.995,6.48,5.053,12.395c-0.692,2.108-1.797,4.158-1.757,6.375c0.085,4.646,4.598,7.512,6.789,11.171
					c2.827,4.721,1.725,11.193-2.105,15.032c-7.285,7.3-19.538,4.578-28.661,3.822c-5.3-0.44-10.066-3.189-11.355-8.707
					c-1.497-6.406,2.554-9.461,5.108-14.503c2.484-4.907-0.495-10.724-0.531-16.224c-0.04-6.148,4.945-9.49,5.894-15.133
					c0.686-4.081-1.585-8.304,0.729-12.148c1.225-2.035,3.476-3.282,5.791-3.815
					C1287.498,1230.189,1290.285,1230.019,1292.914,1230.426L1292.914,1230.426z"/>
				<path style="fill:#17152B;" d="M1289.672,1324.327c-0.173-0.001-0.312-0.143-0.31-0.316l0.54-81.031
					c0.002-0.173,0.143-0.311,0.315-0.311c0.173,0.001,0.312,0.142,0.31,0.315l-0.54,81.032
					C1289.985,1324.188,1289.845,1324.328,1289.672,1324.327L1289.672,1324.327z"/>
				<path style="fill:#17152B;" d="M1289.97,1279.628c-0.119-0.001-0.232-0.07-0.283-0.185l-8.762-19.518
					c-0.071-0.158,0-0.343,0.157-0.413c0.157-0.071,0.343,0,0.413,0.157l8.762,19.518c0.071,0.158,0,0.343-0.157,0.414
					C1290.058,1279.62,1290.014,1279.628,1289.97,1279.628L1289.97,1279.628z"/>
				<path style="fill:#17152B;" d="M1289.876,1293.681c-0.062,0-0.124-0.019-0.178-0.057c-0.141-0.099-0.175-0.295-0.075-0.436
					l8.84-12.524c0.099-0.141,0.294-0.175,0.436-0.075c0.141,0.099,0.175,0.294,0.075,0.436l-8.839,12.525
					C1290.073,1293.636,1289.975,1293.682,1289.876,1293.681L1289.876,1293.681z"/>
			</g>
		</g>
		<g>
			<g>
				<path style="fill:#EA8383;" d="M655.01,1219.505c0,0-21.614-1.533-28.195-6.027c-6.587-4.495-25.194-23.531-25.194-23.531
					l13.456-8.158c0,0,18.223,21.755,20.202,23.331c1.985,1.576,20.757,8.343,20.757,8.343L655.01,1219.505L655.01,1219.505z"/>
				<path style="fill:#060633;" d="M535.467,1251.782c0,0,31.96,57.524,32.535,61.25c0.569,3.731-6.324,71.875-6.324,71.875
					l13.353,4.849c0,0,22.898-48.242,26.746-64.407c3.853-16.165-12.021-51.516-12.021-51.516L535.467,1251.782L535.467,1251.782
					L535.467,1251.782z"/>
				<polygon style="fill:#060633;" points="697.853,1444.917 699.444,1444.917 699.444,1309.37 697.853,1309.37 697.853,1444.917 
									"/>
				<polygon style="fill:#060633;" points="719.875,1441.507 721.379,1440.992 677.422,1312.775 675.914,1313.29 719.875,1441.507 
									"/>
				<polygon style="fill:#060633;" points="746.364,1423.401 747.477,1422.267 650.934,1327.135 649.815,1328.268 746.364,1423.401 
									"/>
				<polygon style="fill:#060633;" points="758.029,1403.067 758.68,1401.617 635.046,1346.063 634.394,1347.513 758.029,1403.067 
									"/>
				<polygon style="fill:#060633;" points="765.19,1378.418 765.238,1376.827 629.763,1372.585 629.714,1374.176 765.19,1378.418 
									"/>
				<polygon style="fill:#060633;" points="636.627,1408.598 757.177,1346.637 756.453,1345.221 635.898,1407.182 636.627,1408.598 
									"/>
				<polygon style="fill:#060633;" points="677.422,1441.507 721.379,1313.29 719.875,1312.775 675.914,1440.992 677.422,1441.507 
									"/>
				<polygon style="fill:#060633;" points="650.934,1423.401 747.477,1328.268 746.364,1327.135 649.815,1422.267 650.934,1423.401 
									"/>
				<path style="fill:#060633;" d="M634.385,1375.426c0,36.601,29.776,66.382,66.383,66.382c36.606,0,66.383-29.781,66.383-66.382
					c0-36.606-29.776-66.388-66.383-66.388C664.161,1309.038,634.385,1338.82,634.385,1375.426L634.385,1375.426z M623.249,1375.426
					c0-42.745,34.772-77.518,77.518-77.518c42.74,0,77.518,34.772,77.518,77.518c0,42.741-34.777,77.518-77.518,77.518
					C658.022,1452.944,623.249,1418.167,623.249,1375.426L623.249,1375.426z"/>
				<path style="fill:#FFFFFF;" d="M640.241,1375.426c0,33.371,27.15,60.526,60.526,60.526c33.371,0,60.526-27.154,60.526-60.526
					c0-33.376-27.154-60.526-60.526-60.526C667.391,1314.9,640.241,1342.05,640.241,1375.426L640.241,1375.426z M629.111,1375.426
					c0-39.516,32.145-71.661,71.656-71.661s71.656,32.146,71.656,71.661c0,39.51-32.146,71.656-71.656,71.656
					S629.111,1414.937,629.111,1375.426L629.111,1375.426z"/>
				<polygon style="fill:#060633;" points="474.737,1444.917 476.328,1444.917 476.328,1309.37 474.737,1309.37 474.737,1444.917 
									"/>
				<polygon style="fill:#060633;" points="496.759,1441.507 498.263,1440.992 454.301,1312.775 452.798,1313.29 496.759,1441.507 
									"/>
				<polygon style="fill:#060633;" points="523.247,1423.401 524.361,1422.267 427.818,1327.135 426.699,1328.268 523.247,1423.401 
									"/>
				<polygon style="fill:#060633;" points="534.913,1403.067 535.564,1401.617 411.93,1346.063 411.278,1347.513 534.913,1403.067 
									"/>
				<polygon style="fill:#060633;" points="542.073,1378.418 542.122,1376.827 406.647,1372.585 406.594,1374.176 542.073,1378.418 
									"/>
				<polygon style="fill:#060633;" points="413.506,1408.598 534.061,1346.637 533.336,1345.221 412.781,1407.182 413.506,1408.598 
									"/>
				<polygon style="fill:#060633;" points="454.301,1441.507 498.263,1313.29 496.759,1312.775 452.798,1440.992 454.301,1441.507 
									"/>
				<polygon style="fill:#060633;" points="427.818,1423.401 524.361,1328.268 523.247,1327.135 426.699,1422.267 427.818,1423.401 
									"/>
				<path style="fill:#060633;" d="M411.263,1375.426c0,36.601,29.781,66.382,66.388,66.382c36.601,0,66.383-29.781,66.383-66.382
					c0-36.606-29.781-66.388-66.383-66.388C441.045,1309.038,411.263,1338.82,411.263,1375.426L411.263,1375.426z M400.133,1375.426
					c0-42.745,34.772-77.518,77.518-77.518c42.741,0,77.518,34.772,77.518,77.518c0,42.741-34.777,77.518-77.518,77.518
					C434.905,1452.944,400.133,1418.167,400.133,1375.426L400.133,1375.426z"/>
				<path style="fill:#FFFFFF;" d="M417.125,1375.426c0,33.371,27.149,60.526,60.526,60.526c33.371,0,60.525-27.154,60.525-60.526
					c0-33.376-27.154-60.526-60.525-60.526C444.275,1314.9,417.125,1342.05,417.125,1375.426L417.125,1375.426z M405.99,1375.426
					c0-39.516,32.145-71.661,71.661-71.661c39.51,0,71.656,32.146,71.656,71.661c0,39.51-32.145,71.656-71.656,71.656
					C438.136,1447.082,405.99,1414.937,405.99,1375.426L405.99,1375.426z"/>
				<path style="fill:#D6544D;" d="M698.466,1376.117l4.369-4.899l-12.726-11.359c-1.951-3.478-15.139-27.665-26.619-66.801
					l-6.3,1.848c12.624,43.013,26.901,67.672,27.505,68.699l0.258,0.448L698.466,1376.117L698.466,1376.117z"/>
				<polygon style="fill:#D6544D;" points="579.721,1384.908 658.469,1279.442 650.958,1273.833 572.21,1379.298 579.721,1384.908 
									"/>
				<polygon style="fill:#D6544D;" points="564.971,1343.821 653.561,1268.355 649.305,1263.36 560.715,1338.825 564.971,1343.821 
									"/>
				<polygon style="fill:#D6544D;" points="574.233,1387.281 580.509,1385.365 555.198,1302.398 548.923,1304.315 574.233,1387.281 
									"/>
				<path style="fill:#D6544D;" d="M575.97,1384.917c1.474,0,2.715-1.148,2.802-2.641c0.097-1.552-1.085-2.885-2.632-2.977
					l-93.075-5.692c-1.615-0.098-2.131-1.387-2.253-1.775c-0.122-0.394-0.409-1.747,0.881-2.734l72.074-55.067
					c1.236-0.944,1.469-2.71,0.53-3.945c-0.944-1.231-2.709-1.469-3.945-0.525l-72.074,55.072c-2.729,2.083-3.848,5.551-2.846,8.839
					c1.002,3.283,3.863,5.541,7.287,5.75l93.075,5.692C575.854,1384.917,575.911,1384.917,575.97,1384.917L575.97,1384.917z"/>
				<polygon style="fill:#FA7267;" points="645.719,1259.526 652.894,1257.342 664.01,1293.802 656.835,1295.987 645.719,1259.526 
									"/>
				<path style="fill:#FA7267;" d="M649.085,1262.81c0.18,0,0.365-0.02,0.545-0.068c1.129-0.301,1.795-1.459,1.498-2.583
					l-3.488-13.071l12.04-16.053c0.701-0.934,0.511-2.257-0.418-2.958c-0.934-0.696-2.257-0.506-2.953,0.423l-12.658,16.875
					c-0.389,0.516-0.515,1.182-0.35,1.809l3.75,14.059C647.3,1262.187,648.156,1262.81,649.085,1262.81L649.085,1262.81z"/>
				<path style="fill:#FA7267;" d="M686.981,1372.493c0-7.506,6.081-13.592,13.591-13.592c7.506,0,13.592,6.086,13.592,13.592
					c0,7.511-6.086,13.596-13.592,13.596C693.062,1386.089,686.981,1380.004,686.981,1372.493L686.981,1372.493z"/>
				<path style="fill:#060633;" d="M692.371,1372.493c0-4.529,3.673-8.202,8.202-8.202c4.529,0,8.202,3.673,8.202,8.202
					c0,4.534-3.673,8.206-8.202,8.206C696.044,1380.699,692.371,1377.027,692.371,1372.493L692.371,1372.493z"/>
				<path style="fill:#7C9AF2;" d="M694.949,1372.493c0-3.104,2.515-5.624,5.623-5.624c3.104,0,5.624,2.52,5.624,5.624
					c0,3.109-2.52,5.628-5.624,5.628C697.464,1378.121,694.949,1375.601,694.949,1372.493L694.949,1372.493z"/>
				<path style="fill:#FA7267;" d="M463.86,1372.493c0-7.506,6.086-13.592,13.597-13.592c7.506,0,13.592,6.086,13.592,13.592
					c0,7.511-6.086,13.596-13.592,13.596C469.945,1386.089,463.86,1380.004,463.86,1372.493L463.86,1372.493z"/>
				<path style="fill:#060633;" d="M469.25,1372.493c0-4.529,3.673-8.202,8.207-8.202c4.529,0,8.202,3.673,8.202,8.202
					c0,4.534-3.673,8.206-8.202,8.206C472.923,1380.699,469.25,1377.027,469.25,1372.493L469.25,1372.493z"/>
				<path style="fill:#7C9AF2;" d="M471.828,1372.493c0-3.104,2.52-5.624,5.629-5.624c3.103,0,5.623,2.52,5.623,5.624
					c0,3.109-2.52,5.628-5.623,5.628C474.348,1378.121,471.828,1375.601,471.828,1372.493L471.828,1372.493z"/>
				<path style="fill:#FA7267;" d="M543.45,1303.074l15.154-4.334c0.044-0.015,0.092,0.014,0.107,0.058l0.778,2.714
					c0.01,0.049-0.015,0.097-0.063,0.107l-15.153,4.339c-0.044,0.01-0.092-0.014-0.107-0.063l-0.778-2.715
					C543.377,1303.137,543.401,1303.089,543.45,1303.074L543.45,1303.074z"/>
				<polygon style="fill:#FA7267;" points="543.11,1284.924 549.419,1283.12 554.449,1300.696 548.139,1302.5 543.11,1284.924 				
					"/>
				<polygon style="fill:#FA7267;" points="539.724,1266.745 543.003,1265.807 548.932,1286.535 545.654,1287.474 539.724,1266.745 
									"/>
				<path style="fill:#060633;" d="M509.874,1259.298c1.878,2.345,11.719,9.841,20.626,9.841c8.907,0,19.215-2.345,26.25,0
					c7.029,2.345,6.09-7.968,0-8.435c-6.096-0.472-43.125-8.907-45.937-7.501C508.002,1254.608,509.874,1259.298,509.874,1259.298
					L509.874,1259.298z"/>
				<path style="fill:#D6544D;" d="M557.217,1382.728c0-9.836,7.973-17.81,17.814-17.81c9.836,0,17.81,7.974,17.81,17.81
					c0,9.836-7.973,17.814-17.81,17.814C565.19,1400.542,557.217,1392.564,557.217,1382.728L557.217,1382.728z"/>
				<polygon style="fill:#7C9AF2;" points="578.008,1405.558 579.55,1405.188 575.805,1389.572 574.258,1389.942 578.008,1405.558 
									"/>
				<polygon style="fill:#D6544D;" points="564.718,1407.678 592.841,1407.678 592.841,1403.067 564.718,1403.067 564.718,1407.678 
									"/>
				<path style="fill:#FB9391;" d="M590.583,1377.961c0,0-9.661,12.526-7.876,15.742c3.24,5.818,10.727,14.103,8.499,15.985
					c-2.228,1.883-24.138-11.602-23.409-14.132c0.73-2.53,7.268-7.589,12.634-22.007L590.583,1377.961L590.583,1377.961z"/>
				<path style="fill:#060633;" d="M570.998,1390.891c-1.717,2.248-2.938,3.765-3.201,4.665c-0.73,2.53,21.181,16.015,23.409,14.132
					c1.654-1.396-1.946-6.368-5.307-11.179C583.685,1399.657,579.619,1401.058,570.998,1390.891L570.998,1390.891z"/>
				<path style="fill:#0B0755;" d="M529.445,1227.376c0,0-15.416,23.093-6.83,31.562c8.591,8.469,71.797,37.472,73.286,44.827
					c1.483,7.355-18.996,73.145-18.996,73.145l11.266,9.179c0,0,41.204-65.405,39.345-80.855
					c-2.544-21.142-52.358-58.035-52.358-58.035l-1.362-10.007L529.445,1227.376L529.445,1227.376z"/>
				<path style="fill:#060633;" d="M657.997,1232.576c0,0,7.029-1.406,7.029-4.218c0-2.812,0.934-4.684,0-5.156
					c-0.939-0.467-13.597-0.934-13.597-0.934l-16.87-0.939l-1.406,6.563h19.687l0.934,4.684H657.997L657.997,1232.576z"/>
				<polygon style="fill:#060633;" points="664.185,1228.879 678.555,1227.658 677.884,1222.808 662.59,1224.175 664.185,1228.879 
									"/>
				<path style="fill:#060633;" d="M674.557,1225.542c0-2.846,1.79-5.152,3.999-5.152c2.209,0,3.999,2.306,3.999,5.152
					c0,2.851-1.79,5.156-3.999,5.156C676.347,1230.698,674.557,1228.393,674.557,1225.542L674.557,1225.542z"/>
				<path style="fill:#FB9391;" d="M625.259,1211.513c0,0,0.423,0.092,1.133,0.248c3.493,0.768,16.165,3.609,18.077,7.117
					c0.759,1.391-7.759,5.784-7.759,5.784s-12.77-1.673-16.331-5.151C616.818,1216.037,625.259,1211.513,625.259,1211.513
					L625.259,1211.513z"/>
				<path style="fill:#FB9391;" d="M634.312,1222.808c0,0,2.559,7.253,3.488,7.219c0.929-0.03-0.744-6.889-0.744-6.889
					L634.312,1222.808L634.312,1222.808z"/>
				<path style="fill:#FB9391;" d="M637.342,1222.609c0,0,4.198,10.693,5.808,10.255c1.615-0.433-3.775-11.539-3.775-11.539
					L637.342,1222.609L637.342,1222.609z"/>
				<path style="fill:#FB9391;" d="M640.179,1221.85c0,0,5.112,10.283,6.684,9.71c1.572-0.579-4.772-11.17-4.772-11.17
					L640.179,1221.85L640.179,1221.85z"/>
				<path style="fill:#FB9391;" d="M642.557,1220.342c0,0,4.67,9.705,6.222,9.102c1.552-0.599-4.31-10.566-4.31-10.566
					L642.557,1220.342L642.557,1220.342z"/>
				<path style="fill:#EA8383;" d="M656.037,1213.463c0,0,0.423,0.093,1.133,0.249c3.498,0.768,15.878,4.013,17.785,7.521
					c0.759,1.391-7.467,5.375-7.467,5.375s-10.211-1.902-13.772-5.375C650.156,1217.759,656.037,1213.463,656.037,1213.463
					L656.037,1213.463z"/>
				<path style="fill:#EA8383;" d="M672.28,1221.938c0,0,5.064,5.793,5.915,5.419c0.851-0.37-3.24-6.124-3.24-6.124L672.28,1221.938
					L672.28,1221.938z"/>
				<path style="fill:#EA8383;" d="M668.125,1224.01c0,0,4.193,10.693,5.808,10.255c1.615-0.433-3.78-11.544-3.78-11.544
					L668.125,1224.01L668.125,1224.01z"/>
				<path style="fill:#EA8383;" d="M670.32,1223.124c0,0,5.108,10.284,6.679,9.71c1.572-0.574-4.772-11.169-4.772-11.169
					L670.32,1223.124L670.32,1223.124z"/>
				<path style="fill:#EA8383;" d="M666.233,1224.345c0,0,1.576,10.653,3.235,10.542c1.664-0.112-0.978-11.368-0.978-11.368
					L666.233,1224.345L666.233,1224.345z"/>
				<path style="fill:#060633;" d="M624.971,1224.661c0-2.851,2.306-5.156,5.156-5.156c2.846,0,5.151,2.306,5.151,5.156
					c0,2.846-2.306,5.157-5.151,5.157C627.277,1229.818,624.971,1227.507,624.971,1224.661L624.971,1224.661z"/>
				<polygon style="fill:#FB9391;" points="625.259,1211.513 623.162,1210.846 619.937,1216.114 624.431,1214.353 625.259,1211.513 
									"/>
				<path style="fill:#FFFFFF;" d="M576.145,1238.326c0,0-35.463-2.787-49.22-9.121c0,0,7.088-8.397,8.542-13.091
					c1.459-4.694,10.692-46.749,22.168-58.225c6.295-6.3,34.884,0.569,44.044,5.721c9.165,5.156,17.824,20.611,17.824,20.611
					l-12.366,14.599l-7.516-8.873c0,0,0.569,4.583-0.861,8.304c-1.43,3.722-10.591,5.726-10.591,5.726s-11.452,19.974-11.452,21.866
					C576.719,1227.736,576.145,1238.326,576.145,1238.326L576.145,1238.326z"/>
				<path style="fill:#FB9391;" d="M620.379,1219.51c0,0-33.435,3.493-41.602-3.303c-8.163-6.791-18.062-35.035-18.062-35.035
					l16.861-4.68c0,0,2.179,23.19,12.969,28.054c10.795,4.87,32.617,6.3,32.617,6.3L620.379,1219.51L620.379,1219.51z"/>
				<polygon style="fill:#FFFFFF;" points="577.862,1168.003 578.018,1168.772 581.491,1185.939 560.715,1193.192 558.399,1175.636 
					572.137,1163.611 577.862,1168.003 				"/>
				<path style="fill:#060633;" d="M560.715,1193.392c0.02,0,0.044-0.005,0.063-0.01l20.777-7.253
					c0.092-0.034,0.151-0.131,0.131-0.229l-2.573-12.726c-0.024-0.107-0.131-0.18-0.234-0.155c-0.112,0.019-0.18,0.126-0.156,0.233
					l2.539,12.561l-20.402,7.117l-3.031-14.57c-0.024-0.107-0.126-0.175-0.233-0.151c-0.107,0.02-0.18,0.127-0.156,0.234
					l3.079,14.788c0.01,0.058,0.048,0.107,0.097,0.136C560.646,1193.382,560.68,1193.392,560.715,1193.392L560.715,1193.392z"/>
				<path style="fill:#060633;" d="M579.142,1141.219c0,0-19.259-12.194-7.725-34.537c0,0,18.539-12.383,30.574-2.161
					c12.035,10.222,6.489,22.955,5.774,24.613C607.045,1130.792,579.142,1141.219,579.142,1141.219L579.142,1141.219z"/>
				<path style="fill:#FB9391;" d="M593.128,1101.773c-8.917-1.149-17.425,4.664-19.614,13.384
					c-0.725,2.868-0.706,5.727-0.088,8.398c1.226,6.593,2.262,11.916,4.052,15.993c1.815,4.132,2.102,8.773,0.618,13.034
					l-1.498,4.306c9.223,7.112,14.696,2.875,14.696,2.875l2.004-10.225l0,0c11.315,0.846,13.835-19.849,15.017-25.882h-0.02
					c0.054-0.224,0.107-0.449,0.151-0.677C610.426,1112.883,603.499,1103.109,593.128,1101.773L593.128,1101.773z"/>
				<path style="fill:#060633;" d="M603.178,1131.077c0.248-0.827-0.224-1.698-1.051-1.944c-0.827-0.247-1.697,0.224-1.941,1.051
					c-0.248,0.827,0.224,1.697,1.051,1.944C602.064,1132.374,602.935,1131.904,603.178,1131.077L603.178,1131.077z"/>
				<path style="fill:#060633;" d="M588.385,1129.867c0.248-0.827-0.224-1.698-1.051-1.945c-0.827-0.246-1.698,0.224-1.946,1.051
					c-0.243,0.827,0.224,1.697,1.051,1.944C587.266,1131.164,588.136,1130.694,588.385,1129.867L588.385,1129.867z"/>
				<path style="fill:#060633;" d="M584.755,1124.573c-0.185-0.021-0.36-0.121-0.467-0.288c-0.199-0.3-0.117-0.703,0.185-0.901
					c0.088-0.059,2.248-1.437,5.117-0.985c0.355,0.056,0.598,0.388,0.54,0.743c-0.054,0.354-0.418,0.598-0.739,0.541
					c-2.393-0.374-4.188,0.775-4.203,0.786C585.052,1124.557,584.901,1124.59,584.755,1124.573L584.755,1124.573z"/>
				<path style="fill:#060633;" d="M600.011,1123.971c-0.146-0.118-0.238-0.296-0.238-0.496c-0.005-0.36,0.282-0.654,0.637-0.659
					c0.107-0.002,2.646-0.02,4.845,1.924c0.268,0.238,0.297,0.648,0.058,0.917c-0.238,0.27-0.661,0.289-0.919,0.057
					c-1.814-1.609-3.94-1.6-3.964-1.6C600.269,1124.117,600.128,1124.063,600.011,1123.971L600.011,1123.971z"/>
				<path style="fill:#EA6868;" d="M594.144,1137.061c1.868,0.079,2.734-1.166,2.943-1.94c0.039-0.135,0.019-0.28-0.044-0.403
					c-1.24-2.302-0.501-5.175-0.496-5.204c0.078-0.292-0.097-0.591-0.389-0.668c-0.287-0.078-0.589,0.095-0.666,0.387
					c-0.034,0.13-0.817,3.139,0.472,5.779c-0.19,0.402-0.808,1.264-2.515,0.842c-0.302-0.072-0.589,0.106-0.662,0.399
					c-0.073,0.293,0.107,0.59,0.399,0.663C593.531,1137.002,593.847,1137.048,594.144,1137.061L594.144,1137.061z"/>
				<path style="fill:#060633;" d="M574.005,1129.756c1.279,3.361,10.654-18.005,21.473-16.904
					c10.824,1.1,11.626,17.303,11.626,17.303s4.145-8.338,1.537-16.042c-2.607-7.704-11.588-16.466-23.146-13.081
					C573.936,1104.418,567.885,1113.719,574.005,1129.756L574.005,1129.756z"/>
				<path style="fill:#FB9391;" d="M577.823,1129.529c-0.175-0.624-0.584-1.154-1.129-1.507c-1.119-0.727-3.152-1.68-4.913-0.497
					c-2.578,1.736,0.642,8.308,5.492,6.305C577.274,1133.83,578.738,1132.843,577.823,1129.529L577.823,1129.529z"/>
				<path style="fill:#EA6868;" d="M598.887,1139.692c0,0-1.975-1.531-2.797-1.387c-0.827,0.144-1.362,1.072-1.362,1.072
					s-0.384-1.015-1.362-1.125c-0.978-0.109-4.422,1.417-4.422,1.417s2.676,4.462,5.687,4.21
					C597.7,1143.622,598.887,1139.692,598.887,1139.692L598.887,1139.692L598.887,1139.692z"/>
				<path style="fill:#FFFFFF;" d="M588.944,1139.67c0,0,6.032,0.335,9.943,0.022c0,0-2.072,2.874-4.364,2.665
					C592.227,1142.148,588.944,1139.67,588.944,1139.67L588.944,1139.67z"/>
				<path style="fill:#060633;" d="M569.529,1101.934c-2.252-0.766-5.03-0.317-6.504,1.546c-0.642,0.81-0.992,1.809-1.537,2.688
					c-2.204,3.573-7.02,4.476-11.213,4.224c-4.188-0.252-8.46-1.293-12.522-0.227c-0.798,0.209-1.596,0.511-2.204,1.07
					c-1.085,1.008-1.328,2.611-1.503,4.083c-0.224,1.869-0.448,3.738-0.671,5.607c-0.151,1.225-0.311,2.494-0.958,3.546
					c-1.382,2.241-4.369,2.72-6.636,4.064c-4.753,2.826-5.803,9.929-2.855,14.612c2.004,3.186,5.55,5.361,9.301,5.702
					c3.751,0.341,7.628-1.158,10.177-3.931c1.912-2.077,3.05-4.742,4.748-6.997c1.697-2.255,4.339-4.192,7.126-3.75
					c1.362,0.216,2.778,0.981,4.047,0.429c0.618-0.269,1.065-0.811,1.464-1.356c1.839-2.533,3.011-5.547,3.366-8.657
					c0.18-1.592,0.165-3.26,0.876-4.696c1.858-3.764,7.939-4.596,8.625-8.737c0.151-0.896,0-1.836,0.263-2.704
					c0.598-1.952,1.63-1.603,0.851-3.553C573.251,1103.595,570.736,1102.345,569.529,1101.934L569.529,1101.934z"/>
			</g>
			<g>
				<g>
					<path style="fill:#FB9391;" d="M877.784,1416.493c0,0,0.554,19.717,0.716,19.994c0.169,0.277-1.318,2.811-1.318,2.811
						l-6.169,1.378l-5.784-2.371c0,0-0.276-18.339-0.992-21.204C863.519,1414.236,877.784,1416.493,877.784,1416.493
						L877.784,1416.493z"/>
					<path style="fill:#100259;" d="M865.228,1438.305c0,0,7.271,2.202,13.217-2.203c0,0,24.237,7.932,23.798,14.763
						c0,0,1.101,1.98-9.256,1.98c-10.353,0-26.44,0.223-26.879,0C865.668,1452.629,863.688,1453.806,865.228,1438.305
						L865.228,1438.305z"/>
					<path style="fill:#FB9391;" d="M817.63,1416.493c0,0,0.554,19.717,0.716,19.994c0.169,0.277-1.318,2.811-1.318,2.811
						l-6.169,1.378l-5.784-2.371c0,0-0.276-18.339-0.992-21.204C803.366,1414.236,817.63,1416.493,817.63,1416.493L817.63,1416.493z
						"/>
					<path style="fill:#100259;" d="M805.075,1438.305c0,0,7.271,2.202,13.217-2.203c0,0,24.237,7.932,23.798,14.763
						c0,0,1.101,1.98-9.256,1.98c-10.353,0-26.44,0.223-26.879,0C805.515,1452.629,803.534,1453.806,805.075,1438.305
						L805.075,1438.305z"/>
					<path style="fill:#2F3DBC;" d="M877.157,1266.785c0,0,8.816,55.476,8.518,79.278c-0.144,11.492-2.821,76.236-2.821,76.236
						c-6.264,2.961-15.65,3.598-23.162,0.689c0,0-4.319-66.975-5.204-73.589c-0.879-6.608-8.899-40.162-10.827-46.374
						c-1.04,10.529-5.567,46.504-7.606,58.017c-3.623,20.457-10.043,59.76-10.433,62.359c-5.516,1.759-12.862,2.492-28.301-3.359
						c1.199-11.444,4.592-37.47,5.756-63.078c0.72-15.829-7.451-85.669-7.451-85.669l60.812-10.575L877.157,1266.785z"/>
					<path style="fill:#060633;" d="M801.578,1301.004c-1.855,0-3.011-0.288-3.06-0.298c-0.31-0.087-0.494-0.401-0.407-0.711
						c0.082-0.314,0.402-0.488,0.711-0.412c0.721,0.19,17.845,4.379,26.489-23.748c0.092-0.309,0.417-0.483,0.727-0.385
						c0.309,0.098,0.477,0.418,0.385,0.727C819.64,1298.253,807.297,1301.004,801.578,1301.004L801.578,1301.004z"/>
					<path style="fill:#060633;" d="M881.252,1293.163c-0.049,0-0.093-0.005-0.141-0.022c-0.152-0.038-15.203-3.993-16.315-22.278
						c-0.022-0.32,0.222-0.591,0.543-0.613c0.331-0.027,0.597,0.223,0.612,0.543c1.064,17.411,14.851,21.073,15.442,21.225
						c0.309,0.076,0.499,0.391,0.417,0.7C881.746,1292.983,881.513,1293.163,881.252,1293.163L881.252,1293.163z"/>
				</g>
				<g>
					<path style="fill:#FB9391;" d="M934.793,1151.947c0,0,3.405-8.484,5.317-11.278c1.912-2.794,1.686-6.92,3.584-6.417
						c1.899,0.497,0.646,6.886,0.646,6.886s6.05-3.288,7.752-4.585c1.706-1.292,5.342-2.825,6.388-1.653
						c1.041,1.172-7.583,6.816-7.583,6.816s7.729-4.037,8.921-3.162c1.196,0.881-7.883,7.46-7.883,7.46s8.035-4.708,8.984-4.526
						c0.954,0.178,0.758,1.405-1.682,3.76c-2.436,2.362-5.539,4.137-5.539,4.137s5.896-2.886,6.721-2.982
						c0.831-0.101,2.041,0.364-1.942,3.473c-3.984,3.115-13.688,8.43-19.62,9.115L934.793,1151.947L934.793,1151.947z"/>
					<path style="fill:#FB9391;" d="M925.529,1165.168c2.714-4.737,8.215-11.752,10.281-14.855c2.641,0.899,4.845,2.114,6.149,5.666
						c-1.633,4.317-3.026,7.173-4.542,12.681L925.529,1165.168L925.529,1165.168z"/>
					<path style="fill:#4C6EBF;" d="M860.789,1133.134c11.954,4.119,17.163,24.613,14.15,44.305
						c-3.358,21.952-7.832,46.264-10.714,69.195c-11.196,8.216-31.257,6.721-59.021,0c0,0-4.702-31.601-15.167-69.195
						c-3.837-13.784-10.504-26.374,1.919-35.13C819.206,1123.101,856.402,1131.622,860.789,1133.134z"/>
					<path style="fill:#D84B48;" d="M827.636,1140.771c0,0,11.247,1.165,15.855,1.715c26.262,3.136,32.498,5.099,44.729,26.175
						c7.262,12.513,9.592,27.394,12.861,27.252c4.827-0.21,8.814-27.611,25.273-35.616c3.655,1.066,8.016,2.265,13.602,4.25
						c-2.569,53.79-27.872,70.699-32.789,70.819c-5.666,0.138-22.545-7.555-32.258-29.26c-3.478,41.967,3.238,52.764,6.92,75.599
						c-12.691,6.596-33.842,11.457-64.682,8.203l-5.464-7.951c0,0-3.749,7.876-4.237,8.988c-5.074,0.797-11.412-0.329-12.83-1.025
						c-3.622-10.994-5.944-42.049-5.944-42.049s-36.323-10.22-24.206-47.314C776.578,1163.463,800.807,1144.564,827.636,1140.771
						L827.636,1140.771z"/>
					<path style="fill:#5C86D1;" d="M816.284,1202.403c-1.507,0.068-8.302,0.291-9.134,0.282
						c5.748-18.345,7.98-33.635-10.036-49.783c0.987-4.928,9.011-7.966,10.898-6.342
						C820.316,1157.149,827.484,1177.325,816.284,1202.403z"/>
					<path style="fill:#5C86D1;" d="M874.359,1213.862c2.439-22.086,1.989-47.689-21.885-70.517
						c0.987-4.928,13.375-0.173,15.179,1.542C874.502,1151.397,893.976,1185,874.359,1213.862z"/>
					<path style="fill:#050521;" d="M867.561,1179.7l-15.668-0.821c-0.231-0.011-0.431,0.165-0.442,0.397l-1.74,33.321
						c-0.011,0.232,0.165,0.432,0.398,0.443l15.661,0.822c0.232,0.011,0.431-0.17,0.443-0.397l1.744-33.327
						C867.969,1179.911,867.787,1179.712,867.561,1179.7L867.561,1179.7z"/>
					<path style="fill:#FB9391;" d="M837.886,1203.791c0,0,5.061-7.614,7.503-9.959c2.441-2.345,3.058-6.427,4.814-5.558
						c1.757,0.875-0.77,6.877-0.77,6.877s6.596-1.99,8.526-2.91c1.931-0.919,5.806-1.681,6.59-0.323
						c0.78,1.364-8.809,5.13-8.809,5.13s8.387-2.38,9.376-1.276c0.989,1.104-9.239,5.695-9.239,5.695s8.824-2.973,9.72-2.602
						c0.896,0.372,0.457,1.531-2.41,3.344c-2.867,1.808-6.267,2.918-6.267,2.918s6.357-1.622,7.189-1.553
						c0.832,0.075,1.923,0.775-2.61,3.01c-4.534,2.235-15.119,5.464-21.064,4.928L837.886,1203.791L837.886,1203.791z"/>
					<path style="fill:#060633;" d="M796.236,1247.641c-4.598,0.65-7.526,0.373-7.575,0.369l0.03-0.284
						c0.078,0.006,8.012,0.736,18.356-3.181c9.54-3.611,23.138-12.038,33.771-31.64l-3.311-9.467
						c-1.779-0.22-29.388-3.419-52.775,3.41l-0.077-0.279c24.112-7.041,52.693-3.443,52.983-3.407l0.084,0.01l0.034,0.083
						l3.384,9.675l-0.035,0.06c-10.687,19.725-24.372,28.196-33.968,31.832C803.006,1246.388,799.26,1247.214,796.236,1247.641
						L796.236,1247.641z"/>
					<path style="fill:#060633;" d="M802.042,1203.318l-0.282-0.054c2.844-14.923,7.706-27.709,7.753-27.836l0.272,0.104
						C809.739,1175.659,804.885,1188.422,802.042,1203.318L802.042,1203.318z"/>
				</g>
				<g>
					<path style="fill:#EA6868;" d="M855.237,1113.248c0,0,1.503-2.197,2.652-1.279c2.924,2.349-0.083,5.267-2.066,5.892
						L855.237,1113.248L855.237,1113.248z"/>
					<path style="fill:#FB9391;" d="M856.021,1105.071l-0.021,0.008c0.01-0.237,0.027-0.47,0.026-0.705
						c0.159-10.39-8.481-18.873-19.036-18.34c-8.792,0.443-16.083,7.326-17.032,16.079c-0.352,3.25,0.169,6.35,1.352,9.102
						c1.61,4.261,3.029,7.901,4.548,10.93c2.506,5.016,3.239,10.737,2.22,16.251l-0.8,4.338c11.024,6.086,16.176,0.661,16.176,0.661
						l0.324-7.98c0.044-1.042,0.881-1.867,1.92-1.92c0.005-0.001,0.012,0.004,0.017,0.003
						C859.514,1132.808,855.923,1111.282,856.021,1105.071L856.021,1105.071z"/>
					<path style="fill:#060633;" d="M852.302,1111.558c0.012-0.73-0.571-1.328-1.296-1.335c-0.725-0.012-1.323,0.566-1.335,1.29
						c-0.012,0.73,0.566,1.328,1.296,1.34C851.692,1112.861,852.289,1112.283,852.302,1111.558L852.302,1111.558z"/>
					<path style="fill:#060633;" d="M836.464,1114.608c0.012-0.73-0.566-1.328-1.297-1.34c-0.724-0.008-1.322,0.57-1.335,1.295
						c-0.012,0.73,0.571,1.327,1.295,1.335C835.854,1115.911,836.452,1115.333,836.464,1114.608L836.464,1114.608z"/>
					<path style="fill:#060633;" d="M831.245,1111.565c-0.17-0.004-0.347-0.049-0.503-0.148c-0.462-0.285-0.603-0.895-0.318-1.358
						c0.866-1.394,3.491-3.524,7.234-1.581c0.484,0.249,0.673,0.847,0.424,1.332c-0.256,0.48-0.848,0.668-1.333,0.418
						c-3.069-1.593-4.587,0.77-4.65,0.871C831.912,1111.405,831.586,1111.571,831.245,1111.565L831.245,1111.565z"/>
					<path style="fill:#060633;" d="M847.072,1109.174c-0.171-0.003-0.347-0.049-0.503-0.148c-0.462-0.286-0.604-0.896-0.318-1.358
						c0.865-1.399,3.491-3.524,7.234-1.582c0.484,0.249,0.673,0.848,0.418,1.333c-0.25,0.48-0.848,0.668-1.327,0.418
						c-3.075-1.593-4.587,0.769-4.65,0.871C847.74,1109.014,847.408,1109.182,847.072,1109.174L847.072,1109.174z"/>
					<path style="fill:#060633;" d="M847.444,1125.451c-3.35,1.575-7.279-0.637-7.327-0.663c-0.143-0.084-0.191-0.263-0.106-0.401
						c0.073-0.142,0.257-0.19,0.395-0.111c0.232,0.137,5.685,3.196,8.849-1.092c0.097-0.129,0.278-0.16,0.407-0.062
						c0.135,0.096,0.16,0.278,0.063,0.407C849.046,1124.458,848.261,1125.067,847.444,1125.451L847.444,1125.451z"/>
					<path style="fill:#4851EC;" d="M818.235,1091.436c0.404-1.022,0.857-2.039,1.523-2.911c1.63-2.153,4.36-3.192,7.027-3.629
						c2.662-0.431,5.395-0.362,8.054-0.82c2.696-0.464,5.37-1.466,8.089-1.154c0.596,0.069,1.202,0.203,1.708,0.531
						c0.519,0.332,0.896,0.832,1.344,1.251c1.868,1.741,4.691,1.857,7.247,1.875c1.475,0.005,2.95,0.015,4.431,0.025
						c1.261,0.008,2.615,0.047,3.634,0.785c1.143,0.836,1.56,2.312,1.997,3.658c0.437,1.341,1.102,2.798,2.432,3.289
						c0.451,0.166,0.998,0.237,1.263,0.644c0.127,0.195,0.161,0.438,0.167,0.672c0.076,2.011-1.633,3.919-3.641,4.06
						c-0.498,0.038-1.006-0.022-1.491,0.112c-1.739,0.487-1.937,2.959-3.317,4.135c-0.846,0.722-2.059,0.861-3.157,0.693
						c-1.104-0.173-2.136-0.613-3.206-0.934c-1.271-0.384-2.594-0.597-3.925-0.629c-0.941-0.026-1.912,0.045-2.755,0.472
						c-0.441,0.221-0.829,0.534-1.268,0.76c-1.528,0.786-3.411,0.405-4.971-0.317c-1.555-0.728-2.958-1.779-4.569-2.389
						c-1.609-0.606-3.582-0.683-4.899,0.424c-0.753,0.638-1.186,1.57-1.837,2.32c-1.711,1.962-4.584,2.297-7.181,2.5
						c-0.536,0.043-1.112,0.08-1.577-0.194c-0.329-0.194-0.556-0.519-0.756-0.847
						C816.071,1101.671,816.521,1095.744,818.235,1091.436L818.235,1091.436z"/>
					<polygon style="fill:#4851EC;" points="818.318,1105.32 822.935,1117.358 826.235,1116.75 828.447,1100.995 818.318,1105.32 
											"/>
					<path style="fill:#FB9391;" d="M826.751,1116.37c-0.286-0.59-0.789-1.045-1.389-1.3c-1.24-0.52-3.438-1.103-4.976,0.386
						c-2.255,2.193,2.127,8.149,6.589,5.288C826.975,1120.744,828.257,1119.499,826.751,1116.37L826.751,1116.37z"/>
					<path style="fill:#EA6868;" d="M845.799,1120.516c-1.63,0.762-3.054-0.127-3.067-0.142c-0.139-0.085-0.175-0.266-0.09-0.404
						c0.086-0.132,0.266-0.175,0.404-0.09c0.067,0.045,1.656,1.02,3.284-0.415c0.263-0.234,0.4-0.424,0.413-0.568
						c0.009-0.203-0.225-0.466-0.556-0.831c-0.753-0.836-2.014-2.236-2.364-5.365c-0.017-0.162,0.094-0.304,0.255-0.327
						c0.162-0.017,0.305,0.099,0.328,0.26c0.328,2.94,1.465,4.205,2.219,5.04c0.404,0.452,0.728,0.806,0.704,1.254
						c-0.022,0.315-0.209,0.616-0.614,0.974C846.407,1120.172,846.101,1120.375,845.799,1120.516L845.799,1120.516z"/>
				</g>
			</g>
		</g>
		<g>
			<g>
				<path style="fill:#6271D6;" d="M1234.664,1055.52c-27.559,0.001-53.155-3.921-77.209-16.128
					c-16.969-8.61-34.476-18.834-53.011-29.659c-34.21-19.978-69.586-40.637-104.17-52.459c-38.1-13.023-69.286-12.904-95.34,0.367
					c-19.314,9.838-35.155,19.319-49.13,27.684c-43.585,26.087-72.382,43.32-139.842,32.22
					c-96.859-15.937-159.12-1.665-159.738-1.519l-3.424-14.397c2.628-0.627,65.515-15.151,165.565,1.314
					c62.112,10.218,87.605-5.038,129.839-30.316c14.179-8.486,30.249-18.105,50.014-28.172
					c66.122-33.681,144.52,12.105,213.69,52.499c18.341,10.712,35.666,20.829,52.245,29.242
					c40.282,20.443,85.431,15.355,142.593,8.917c51.86-5.842,110.638-12.464,181.58-1.708c65.664,9.953,112.223,6.846,142.34-9.502
					c24.52-13.31,35.896-33.749,45.433-60.344c4.331-12.079,7.891-25.33,11.333-38.144c10.87-40.461,22.11-82.299,59.787-100.114
					c46.025-21.762,86.725-21.255,88.432-21.219l-0.28,14.796c-0.379-0.008-39.079-0.411-81.825,19.802
					c-31.487,14.888-41.364,51.652-51.821,90.575c-3.52,13.102-7.16,26.651-11.695,39.3c-9.242,25.774-21.975,51.893-52.303,68.355
					c-33.055,17.943-82.649,21.584-151.619,11.127c-69.011-10.461-126.757-3.957-177.705,1.783
					C1282.281,1052.761,1257.781,1055.52,1234.664,1055.52z"/>
			</g>
			<g>
				<path style="fill:#6271D6;" d="M666.303,1006.748c-1.723,0-3.182-1.327-3.316-3.073c-0.141-1.834,1.23-3.435,3.064-3.577
					c63.956-4.936,86.16-12.471,113.132-38.395c15.688-15.078,27.221-45.045,22.437-58.299c-2.847-7.888-12.882-14.89-22.587-21.662
					c-11.032-7.698-22.439-15.657-24.701-26.033c-1.96-8.993,3.28-14.995,7.49-19.818c5.849-6.7,9.713-11.126,0.47-22.294
					c-15.294-18.478-37.302-32.428-37.522-32.567c-1.557-0.979-2.025-3.035-1.046-4.591c0.979-1.557,3.034-2.025,4.591-1.047
					c0.936,0.589,23.116,14.637,39.108,33.959c12.852,15.529,5.403,24.063-0.583,30.919c-3.888,4.454-7.246,8.301-5.999,14.02
					c1.706,7.826,12.025,15.026,22.004,21.99c10.558,7.367,21.475,14.985,25.04,24.862c6.266,17.361-8.054,49.952-24.086,65.362
					c-28.355,27.253-51.364,35.149-117.234,40.233C666.476,1006.746,666.389,1006.748,666.303,1006.748z"/>
			</g>
			<g>
				<path style="fill:#6271D6;" d="M776.633,848.89c-4.866,0-10.517-0.834-17.169-2.736c-1.768-0.506-2.792-2.349-2.286-4.117
					c0.506-1.768,2.35-2.791,4.117-2.286c26.267,7.512,33.168-3.109,41.906-16.555c6.633-10.204,14.149-21.77,31.401-24.605
					c28.567-4.693,61.701,10.482,79.503,18.635c2.029,0.93,3.852,1.764,5.433,2.461c16.265,7.165,28.14,4.269,30.218,0.637
					c1.342-2.346-2.4-5.298-3.579-6.146c-5.089-3.666-11.731-9.272-10.653-15.617c1.287-7.575,12.284-10.827,25.018-14.592
					c8.233-2.435,16.747-4.952,22.069-8.521c4.338-2.909,8.688-6.901,13.727-11.524c17.968-16.486,42.58-39.064,94.872-36.059
					c1.836,0.105,3.239,1.679,3.133,3.516c-0.106,1.836-1.683,3.234-3.515,3.133c-49.483-2.844-71.942,17.761-89.988,34.318
					c-5.02,4.606-9.762,8.957-14.52,12.147c-6.168,4.137-15.177,6.8-23.89,9.377c-8.335,2.464-19.75,5.839-20.341,9.321
					c-0.119,0.7,0.105,3.426,7.98,9.097c9.177,6.609,6.505,13.042,5.468,14.857c-4.31,7.535-19.957,10.401-38.683,2.152
					c-1.607-0.708-3.459-1.556-5.522-2.501c-17.156-7.857-49.089-22.482-75.65-18.118c-14.35,2.358-20.444,11.735-26.896,21.663
					C801.709,837.712,794.443,848.89,776.633,848.89z"/>
			</g>
			<g>
				<path style="fill:#6271D6;" d="M1757.028,832.319c-1.839,0-3.33-1.491-3.33-3.33c0-16.845-11.253-20.414-24.282-24.547
					c-9.326-2.958-18.969-6.016-24.683-14.323c-14.416-20.956-37.795-17.789-62.553-14.436c-9.504,1.287-19.333,2.619-28.901,2.619
					c-11.377,0-19.126-11.462-25.963-21.575c-5.047-7.466-10.265-15.184-15.09-15.184c-0.042,0-0.084,0-0.125,0.001
					c-8.32,0.233-13.889-3.336-19.771-7.115c-9.487-6.094-20.24-12.998-48.127-8.951c-1.819,0.269-3.51-0.997-3.774-2.817
					c-0.264-1.82,0.997-3.509,2.817-3.773c30.352-4.406,42.732,3.548,52.683,9.938c5.425,3.484,9.714,6.238,15.987,6.061
					c0.111-0.003,0.222-0.005,0.332-0.005c8.34,0,14.29,8.802,20.586,18.114c6.197,9.167,12.605,18.646,20.446,18.646
					c9.119,0,18.721-1.301,28.007-2.558c25.662-3.477,52.197-7.071,68.933,17.261c4.419,6.423,12.575,9.01,21.21,11.748
					c13.56,4.301,28.928,9.175,28.928,30.895C1760.358,830.828,1758.867,832.319,1757.028,832.319z"/>
			</g>
			<g>
				<path style="fill:#6271D6;" d="M1224.064,1227.015c-0.034,0-0.067-0.001-0.1-0.002c-38.746-1.144-49.397-6.333-60.673-11.828
					c-8.621-4.201-17.536-8.545-40.707-11.713c-9.867-1.35-16.268-6.762-17.56-14.848c-1.49-9.324,4.551-19.84,14.053-24.463
					c7.358-3.579,11.739-7.293,13.021-11.036c1.433-4.184-0.802-8.718-3.391-13.97c-3.041-6.17-6.488-13.162-3.815-20.873
					c5.342-15.407,33.235-24.378,60.209-33.053c6.167-1.984,11.991-3.856,17.365-5.756c4.562-1.612,4.875-3.729,4.977-4.425
					c1.171-7.941-15.845-23.695-26.846-31.76c-1.483-1.088-1.804-3.171-0.717-4.654c1.087-1.482,3.171-1.805,4.653-0.718
					c0.315,0.231,7.794,5.73,15.159,12.933c10.615,10.38,15.305,18.613,14.339,25.168c-0.456,3.096-2.448,7.297-9.346,9.735
					c-5.463,1.931-11.332,3.818-17.545,5.816c-23.035,7.408-51.703,16.629-55.956,28.894c-1.762,5.082,0.792,10.262,3.496,15.747
					c2.974,6.032,6.048,12.269,3.718,19.073c-1.931,5.636-7.144,10.36-16.408,14.867c-6.854,3.335-11.418,10.988-10.39,17.423
					c0.809,5.06,5.03,8.363,11.886,9.3c24.228,3.313,34.053,8.101,42.722,12.325c11.074,5.396,20.639,10.056,57.952,11.158
					c1.838,0.054,3.284,1.588,3.23,3.427C1227.336,1225.587,1225.856,1227.015,1224.064,1227.015z"/>
			</g>
			<g>
				<path style="fill:#6271D6;" d="M1130.731,1117.914c-1.562,0-2.956-1.105-3.265-2.695c-0.035-0.176-3.633-18.007-13.261-23.023
					c-3.347-1.743-7.055-1.67-11.334,0.223c-24.791,10.968-38.897,0.589-53.831-10.398c-8.268-6.083-16.818-12.373-28.076-15.997
					c-1.751-0.563-2.713-2.439-2.15-4.19c0.564-1.75,2.442-2.713,4.19-2.149c12.29,3.956,21.69,10.87,29.983,16.972
					c14.487,10.658,25.93,19.078,47.19,9.671c6.171-2.73,11.931-2.74,17.12-0.031c12.469,6.51,16.54,26.791,16.707,27.651
					c0.351,1.805-0.828,3.553-2.634,3.904C1131.155,1117.894,1130.942,1117.914,1130.731,1117.914z"/>
			</g>
			<g>
				<path style="fill:#6271D6;" d="M1087.806,870.337c-0.214,0-0.43-0.021-0.647-0.064c-26.404-5.202-98.779-17-116.354-9.226
					c-18.674,8.26-30.605,8.558-41.182,1.025c-10.1-7.193-18.399-21.287-30.961-42.62l-1.981-3.363
					c-0.934-1.584-0.407-3.625,1.177-4.559c1.585-0.933,3.626-0.406,4.559,1.178l1.983,3.366
					c24.693,41.936,31.33,53.208,63.71,38.884c23.082-10.211,116.375,8.003,120.335,8.783c1.804,0.356,2.979,2.107,2.623,3.911
					C1090.756,869.237,1089.364,870.337,1087.806,870.337z"/>
			</g>
			<g>
				<path style="fill:#6271D6;" d="M1369.48,859.831c-1.645,0-3.076-1.219-3.297-2.894c-1.567-11.859-6.093-20.644-13.455-26.111
					c-8.426-6.258-20.558-8.146-36.061-5.615c-5.206,0.85-10.494,2.205-16.093,3.64c-14.237,3.648-28.961,7.421-44.324,3.357
					c-9.673-2.558-12.443-9.814-15.121-16.831c-4.245-11.122-9.048-23.727-46.045-22.938c-1.817,0.045-3.361-1.419-3.4-3.258
					c-0.039-1.839,1.419-3.361,3.258-3.4c18.267-0.39,31.246,2.361,39.682,8.412c7.639,5.48,10.342,12.561,12.727,18.809
					c2.702,7.078,4.526,11.161,10.602,12.767c13.688,3.621,27.557,0.066,40.969-3.37c5.493-1.407,11.174-2.863,16.672-3.761
					c17.351-2.836,31.178-0.532,41.106,6.841c8.863,6.583,14.275,16.873,16.086,30.586c0.241,1.823-1.042,3.496-2.865,3.737
					C1369.773,859.822,1369.625,859.831,1369.48,859.831z"/>
			</g>
			<g>
				<path style="fill:#6271D6;" d="M1587.929,1198.195c-2.484,0-5.18-0.106-8.121-0.33c-1.833-0.14-3.206-1.74-3.067-3.574
					c0.141-1.833,1.742-3.199,3.574-3.067c23.471,1.791,28.56-4.185,34.451-11.106c3.524-4.14,7.518-8.832,15.35-11.776
					c7.856-2.953,13.526-2.811,18.528-2.689c8.03,0.203,14.379,0.356,28.76-13.183c4.231-3.983,6.11-7.568,5.586-10.655
					c-1.095-6.451-12.289-12.2-21.919-16.488c-1.68-0.749-2.436-2.717-1.688-4.396c0.747-1.68,2.715-2.437,4.396-1.688
					c12.435,5.537,24.166,11.969,25.776,21.458c0.921,5.421-1.632,11.013-7.586,16.619c-16.372,15.416-24.687,15.216-33.49,14.992
					c-4.61-0.113-9.377-0.232-16.02,2.265c-6.22,2.338-9.33,5.991-12.622,9.859
					C1614.069,1191.211,1608.124,1198.195,1587.929,1198.195z"/>
			</g>
			<g>
				<path style="fill:#6271D6;" d="M1597.522,857.462c-0.862,0-1.724-0.333-2.376-0.997c-1.288-1.312-1.269-3.42,0.043-4.709
					c17.65-17.329,25.255-24.873,35.174-35.429c9.099-9.685,18.734-5.269,26.475-1.722c7.725,3.539,12.732,5.486,18.106,1.057
					c5.773-4.758,7.27-11.079,8.59-16.655c1.266-5.346,2.462-10.396,7.15-12.916c4.308-2.314,10.548-1.762,20.234,1.793
					c1.726,0.634,2.612,2.547,1.979,4.273c-0.634,1.727-2.549,2.611-4.273,1.979c-7.428-2.728-12.404-3.461-14.786-2.179
					c-1.952,1.049-2.724,3.946-3.823,8.585c-1.485,6.272-3.333,14.077-10.836,20.26c-8.864,7.303-17.875,3.175-25.116-0.143
					c-8.319-3.811-13.295-5.68-18.848,0.229c-10.003,10.645-17.643,18.223-35.362,35.621
					C1599.206,857.145,1598.364,857.462,1597.522,857.462z"/>
			</g>
			<g>
				<path style="fill:#6271D6;" d="M1663.335,1125.618c-21.181,0.001-44.481-11.909-47.036-24.76
					c-0.912-4.588,0.015-13.081,16.464-18.41c26.137-8.467,28.504-13.754,28.607-15.172c0.254-3.523-9.889-8.519-17.295-12.167
					c-10.327-5.086-20.082-9.891-21.872-17.008c-0.494-1.965-0.571-5.025,1.873-8.447c1.069-1.496,3.148-1.844,4.645-0.775
					c1.497,1.069,1.844,3.148,0.775,4.645c-1.046,1.463-0.977,2.385-0.835,2.952c1.038,4.128,10.641,8.858,18.356,12.659
					c11.094,5.464,21.573,10.626,20.995,18.621c-0.533,7.374-10.461,13.663-33.197,21.028c-4.956,1.606-13.104,5.141-11.984,10.776
					c0.882,4.441,6.586,9.64,14.884,13.567c9.218,4.362,19.906,6.436,29.326,5.688c9.273-0.736,17.051-4.476,26.059-8.807
					c14.585-7.013,31.115-14.959,59.892-13.712c1.838,0.08,3.262,1.635,3.182,3.471c-0.08,1.837-1.624,3.263-3.471,3.182
					c-27.109-1.188-42.837,6.386-56.717,13.06c-9.208,4.427-17.906,8.61-28.417,9.445
					C1666.173,1125.564,1664.758,1125.618,1663.335,1125.618z"/>
			</g>
			<g>
				<path style="fill:#6271D6;" d="M1320.782,1044.32c-0.527,0-1.061-0.125-1.558-0.39c-16.64-8.832-20.537-22.049-24.307-34.831
					c-4.777-16.198-9.716-32.948-39.456-46.601c-11.682-5.363-23.095-17.798-21.236-30.281c1.318-8.856,9.75-20.344,42.438-24.779
					c12.289-1.667,17.055-11.397,22.574-22.663c9.105-18.587,20.438-41.717,70.906-31.538c18.971,3.825,30.854-4.083,43.435-12.457
					c10.252-6.824,20.882-13.873,35.074-13.495c27.328,0.739,46.126,0.009,46.313,0.002c1.838-0.08,3.386,1.356,3.46,3.194
					c0.074,1.838-1.356,3.386-3.194,3.46c-0.189,0.008-19.191,0.745-46.758,0.001c-12.104-0.322-21.386,5.846-31.205,12.382
					c-12.545,8.35-26.76,17.815-48.442,13.441c-45.436-9.166-54.674,9.698-63.609,27.94c-5.825,11.891-11.848,24.188-27.658,26.333
					c-22.308,3.028-35.358,9.832-36.747,19.161c-1.312,8.815,8.025,18.931,17.429,23.248c32.492,14.916,38.108,33.964,43.064,50.77
					c3.69,12.51,6.875,23.314,21.041,30.832c1.624,0.862,2.242,2.877,1.38,4.502
					C1323.128,1043.677,1321.974,1044.32,1320.782,1044.32z"/>
			</g>
		</g>
		<g>
			<path style="fill:#FA7267;" d="M1835.523,692.157c-26.32-0.006-47.667,21.327-47.673,47.65
				c-0.006,26.322,43.751,82.404,47.642,82.405c3.244,0.001,47.675-56.06,47.681-82.383S1861.845,692.163,1835.523,692.157z
				 M1835.504,765.487c-15.062-0.004-27.267-12.215-27.264-27.277c0.004-15.06,12.214-27.267,27.277-27.263
				c15.061,0.004,27.267,12.215,27.264,27.276C1862.778,753.284,1850.565,765.49,1835.504,765.487z"/>
			<path style="fill:#FA7267;" d="M557.292,899.078c-26.32-0.006-47.667,21.327-47.673,47.649
				c-0.006,26.322,43.751,82.404,47.642,82.405c3.244,0.001,47.675-56.06,47.681-82.382
				C604.949,920.427,583.615,899.084,557.292,899.078z M557.274,972.407c-15.063-0.004-27.268-12.215-27.264-27.277
				c0.004-15.061,12.214-27.266,27.277-27.263c15.061,0.003,27.267,12.215,27.264,27.276
				C584.547,960.205,572.335,972.41,557.274,972.407z"/>
			<path style="fill:#FA7267;" d="M1495.105,757.185c-16.042-0.004-29.052,12.998-29.056,29.042
				c-0.004,16.043,26.665,50.224,29.037,50.224c1.977,0.001,29.057-34.168,29.061-50.211
				C1524.151,770.197,1511.148,757.188,1495.105,757.185z M1495.094,801.877c-9.18-0.002-16.619-7.445-16.617-16.625
				c0.002-9.179,7.444-16.618,16.625-16.616c9.179,0.002,16.619,7.445,16.617,16.624
				C1511.717,794.44,1504.273,801.88,1495.094,801.877z"/>
			<path style="fill:#FA7267;" d="M1750.39,1029.537c-16.042-0.004-29.052,12.998-29.056,29.042
				c-0.004,16.043,26.665,50.224,29.037,50.224c1.977,0,29.057-34.168,29.061-50.211
				C1779.435,1042.549,1766.433,1029.541,1750.39,1029.537z M1750.379,1074.23c-9.18-0.002-16.619-7.445-16.617-16.625
				c0.002-9.179,7.444-16.618,16.625-16.616c9.179,0.002,16.619,7.445,16.617,16.624
				C1767.001,1066.793,1759.558,1074.232,1750.379,1074.23z"/>
			<path style="fill:#FA7267;" d="M1224.069,1151.093c-16.042-0.004-29.052,12.998-29.056,29.042
				c-0.004,16.043,26.665,50.224,29.037,50.224c1.977,0,29.057-34.168,29.061-50.211S1240.112,1151.097,1224.069,1151.093z
				 M1224.057,1195.786c-9.18-0.002-16.619-7.445-16.617-16.625c0.002-9.179,7.444-16.618,16.625-16.616
				c9.179,0.002,16.619,7.445,16.617,16.624C1240.68,1188.349,1233.237,1195.788,1224.057,1195.786z"/>
			<path style="fill:#FA7267;" d="M728.543,710.947c-16.042-0.004-29.052,12.998-29.056,29.042
				c-0.004,16.043,26.665,50.224,29.037,50.224c1.977,0,29.057-34.168,29.061-50.211
				C757.589,723.959,744.586,710.951,728.543,710.947z M728.532,755.64c-9.18-0.002-16.619-7.445-16.617-16.625
				c0.002-9.179,7.444-16.618,16.625-16.616c9.179,0.002,16.619,7.445,16.617,16.624
				C745.154,748.203,737.711,755.642,728.532,755.64z"/>
		</g>
		<g>
			
				<rect x="1567.24" y="1251.113" transform="matrix(0.866 0.5 -0.5 0.866 853.123 -637.2631)" style="fill:#99636E;" width="96.942" height="44.412"/>
			<g>
				<path style="fill:#87555F;" d="M1668.789,1281.654c-0.565,0-1.137-0.144-1.662-0.447l-83.954-48.471
					c-1.593-0.92-2.138-2.956-1.219-4.549c0.921-1.593,2.956-2.139,4.549-1.219l83.954,48.471c1.593,0.92,2.138,2.956,1.219,4.549
					C1671.059,1281.056,1669.939,1281.654,1668.789,1281.654z"/>
			</g>
			<g>
				<path style="fill:#87555F;" d="M1646.583,1320.116c-0.565,0-1.137-0.144-1.662-0.447l-83.954-48.47
					c-1.593-0.92-2.138-2.956-1.219-4.549c0.92-1.593,2.956-2.139,4.549-1.219l83.954,48.471c1.593,0.92,2.138,2.956,1.219,4.549
					C1648.852,1319.518,1647.733,1320.116,1646.583,1320.116z"/>
			</g>
		</g>
		<g>
			<polygon style="fill:#8C575F;" points="1649.171,980.435 1575.201,980.435 1575.201,924.769 1612.186,887.784 1649.171,924.769 
							"/>
			<polygon style="fill:#704250;" points="1576.125,924.769 1616.068,880.143 1656.01,924.769 			"/>
			<rect x="1565.618" y="880.143" style="fill:#704250;" width="50.45" height="44.626"/>
			<polygon style="fill:#7D4C59;" points="1525.675,924.769 1565.618,880.143 1605.56,924.769 			"/>
			<polygon style="fill:#99636E;" points="1598.721,980.435 1532.514,980.435 1532.514,924.769 1565.618,887.784 1598.721,924.769 
							"/>
			<rect x="1550.218" y="934.056" style="fill:#70424C;" width="30.8" height="24.854"/>
			<rect x="1551.697" y="935.5" style="fill:#C6D2F5;" width="27.841" height="21.966"/>
			<rect x="1611.275" y="933.797" style="fill:#70424C;" width="28.503" height="25.372"/>
			<rect x="1612.93" y="935.5" style="fill:#C6D2F5;" width="25.192" height="21.966"/>
			<rect x="1564.878" y="934.056" style="fill:#70424C;" width="1.479" height="24.854"/>
			
				<rect x="1564.878" y="931.404" transform="matrix(6.123234e-17 -1 1 6.123234e-17 619.1343 2512.1008)" style="fill:#70424C;" width="1.479" height="30.159"/>
			<rect x="1624.787" y="934.056" style="fill:#70424C;" width="1.479" height="24.854"/>
			
				<rect x="1624.787" y="932.901" transform="matrix(6.123234e-17 -1 1 6.123234e-17 679.043 2572.0098)" style="fill:#70424C;" width="1.479" height="27.165"/>
		</g>
		<g>
			<polygon style="fill:#8C575F;" points="1078.531,1054.313 1004.561,1054.313 1004.561,998.647 1041.546,961.661 
				1078.531,998.647 			"/>
			<polygon style="fill:#704250;" points="1005.485,998.647 1045.428,954.021 1085.37,998.647 			"/>
			<rect x="994.978" y="954.021" style="fill:#704250;" width="50.45" height="44.626"/>
			<polygon style="fill:#7D4C59;" points="955.035,998.647 994.978,954.021 1034.92,998.647 			"/>
			<polygon style="fill:#99636E;" points="1028.081,1054.313 961.874,1054.313 961.874,998.647 994.978,961.661 1028.081,998.647 
							"/>
			<rect x="979.578" y="1007.934" style="fill:#70424C;" width="30.8" height="24.854"/>
			<rect x="981.057" y="1009.378" style="fill:#C6D2F5;" width="27.841" height="21.966"/>
			<rect x="1040.635" y="1007.675" style="fill:#70424C;" width="28.503" height="25.372"/>
			<rect x="1042.29" y="1009.378" style="fill:#C6D2F5;" width="25.192" height="21.966"/>
			<rect x="994.238" y="1007.934" style="fill:#70424C;" width="1.479" height="24.854"/>
			
				<rect x="994.238" y="1005.282" transform="matrix(6.123234e-17 -1 1 6.123234e-17 -25.3837 2015.3387)" style="fill:#70424C;" width="1.479" height="30.159"/>
			<rect x="1054.146" y="1007.934" style="fill:#70424C;" width="1.479" height="24.854"/>
			
				<rect x="1054.147" y="1006.779" transform="matrix(6.123234e-17 -1 1 6.123234e-17 34.5251 2075.2476)" style="fill:#70424C;" width="1.479" height="27.165"/>
		</g>
		<g>
			<polygon style="fill:#8C575F;" points="641.839,822.907 553.911,822.907 553.911,767.241 597.875,730.256 641.839,767.241 			"/>
			<polygon style="fill:#704250;" points="568.793,767.241 608.735,722.615 648.678,767.241 			"/>
			<rect x="520.807" y="722.615" style="fill:#704250;" width="87.928" height="44.626"/>
			<polygon style="fill:#7D4C59;" points="480.865,767.241 520.807,722.615 560.75,767.241 			"/>
			<polygon style="fill:#99636E;" points="553.911,822.907 487.703,822.907 487.703,767.241 520.807,730.256 553.911,767.241 			"/>
			<rect x="505.407" y="776.528" style="fill:#70424C;" width="30.8" height="24.854"/>
			<rect x="506.887" y="777.972" style="fill:#C6D2F5;" width="27.841" height="21.967"/>
			<rect x="520.067" y="776.528" style="fill:#70424C;" width="1.479" height="24.854"/>
			
				<rect x="520.067" y="773.876" transform="matrix(6.123234e-17 -1 1 6.123234e-17 -268.1482 1309.7625)" style="fill:#70424C;" width="1.479" height="30.159"/>
			<g>
				<g>
					<rect x="565.687" y="776.269" style="fill:#70424C;" width="28.503" height="25.372"/>
					<rect x="567.343" y="777.972" style="fill:#C6D2F5;" width="25.192" height="21.967"/>
					<rect x="579.199" y="776.528" style="fill:#70424C;" width="1.479" height="24.854"/>
					
						<rect x="579.199" y="775.373" transform="matrix(6.123234e-17 -1 1 6.123234e-17 -209.0164 1368.8942)" style="fill:#70424C;" width="1.479" height="27.165"/>
				</g>
				<g>
					<rect x="601.559" y="776.269" style="fill:#70424C;" width="28.503" height="25.372"/>
					<rect x="603.215" y="777.972" style="fill:#C6D2F5;" width="25.192" height="21.967"/>
					<rect x="615.071" y="776.528" style="fill:#70424C;" width="1.48" height="24.854"/>
					
						<rect x="615.071" y="775.373" transform="matrix(6.123234e-17 -1 1 6.123234e-17 -173.1445 1404.7661)" style="fill:#70424C;" width="1.479" height="27.164"/>
				</g>
			</g>
		</g>
	</g>
</g>
</svg>
